<?xml version="1.0" encoding="utf-8" standalone="no"?>
<!DOCTYPE svg PUBLIC "-//W3C//DTD SVG 1.1//EN"
  "http://www.w3.org/Graphics/SVG/1.1/DTD/svg11.dtd">
<svg xmlns:xlink="http://www.w3.org/1999/xlink" width="361.403125pt" height="242.138125pt" viewBox="0 0 361.403125 242.138125" xmlns="http://www.w3.org/2000/svg" version="1.1">
 <metadata>
  <rdf:RDF xmlns:dc="http://purl.org/dc/elements/1.1/" xmlns:cc="http://creativecommons.org/ns#" xmlns:rdf="http://www.w3.org/1999/02/22-rdf-syntax-ns#">
   <cc:Work>
    <dc:type rdf:resource="http://purl.org/dc/dcmitype/StillImage"/>
    <dc:date>2022-01-04T16:54:19.769082</dc:date>
    <dc:format>image/svg+xml</dc:format>
    <dc:creator>
     <cc:Agent>
      <dc:title>Matplotlib v3.5.0, https://matplotlib.org/</dc:title>
     </cc:Agent>
    </dc:creator>
   </cc:Work>
  </rdf:RDF>
 </metadata>
 <defs>
  <style type="text/css">*{stroke-linejoin: round; stroke-linecap: butt}</style>
 </defs>
 <g id="figure_1">
  <g id="patch_1">
   <path d="M 0 242.138125 
L 361.403125 242.138125 
L 361.403125 0 
L 0 0 
z
" style="fill: #ffffff"/>
  </g>
  <g id="axes_1">
   <g id="patch_2">
    <path d="M 23.003125 225.36 
L 357.803125 225.36 
L 357.803125 3.6 
L 23.003125 3.6 
z
" style="fill: #ffffff"/>
   </g>
   <g id="matplotlib.axis_1">
    <g id="xtick_1">
     <g id="line2d_1">
      <path d="M 38.221307 225.36 
L 38.221307 3.6 
" clip-path="url(#pf7c7119a40)" style="fill: none; stroke-dasharray: 1.85,0.8; stroke-dashoffset: 0; stroke: #000000; stroke-opacity: 0.5; stroke-width: 0.5"/>
     </g>
     <g id="line2d_2">
      <defs>
       <path id="mad73fae5fc" d="M 0 0 
L 0 -3 
" style="stroke: #000000; stroke-width: 0.5"/>
      </defs>
      <g>
       <use xlink:href="#mad73fae5fc" x="38.221307" y="225.36" style="stroke: #000000; stroke-width: 0.5"/>
      </g>
     </g>
     <g id="line2d_3">
      <defs>
       <path id="m033dbb7d93" d="M 0 0 
L 0 3 
" style="stroke: #000000; stroke-width: 0.5"/>
      </defs>
      <g>
       <use xlink:href="#m033dbb7d93" x="38.221307" y="3.6" style="stroke: #000000; stroke-width: 0.5"/>
      </g>
     </g>
     <g id="text_1">
      <!-- 0 -->
      <g transform="translate(35.040057 236.458437)scale(0.1 -0.1)">
       <defs>
        <path id="DejaVuSerif-30" d="M 2034 219 
Q 2513 219 2750 744 
Q 2988 1269 2988 2328 
Q 2988 3391 2750 3916 
Q 2513 4441 2034 4441 
Q 1556 4441 1318 3916 
Q 1081 3391 1081 2328 
Q 1081 1269 1318 744 
Q 1556 219 2034 219 
z
M 2034 -91 
Q 1275 -91 848 546 
Q 422 1184 422 2328 
Q 422 3475 848 4112 
Q 1275 4750 2034 4750 
Q 2797 4750 3222 4112 
Q 3647 3475 3647 2328 
Q 3647 1184 3222 546 
Q 2797 -91 2034 -91 
z
" transform="scale(0.015625)"/>
       </defs>
       <use xlink:href="#DejaVuSerif-30"/>
      </g>
     </g>
    </g>
    <g id="xtick_2">
     <g id="line2d_4">
      <path d="M 84.974554 225.36 
L 84.974554 3.6 
" clip-path="url(#pf7c7119a40)" style="fill: none; stroke-dasharray: 1.85,0.8; stroke-dashoffset: 0; stroke: #000000; stroke-opacity: 0.5; stroke-width: 0.5"/>
     </g>
     <g id="line2d_5">
      <g>
       <use xlink:href="#mad73fae5fc" x="84.974554" y="225.36" style="stroke: #000000; stroke-width: 0.5"/>
      </g>
     </g>
     <g id="line2d_6">
      <g>
       <use xlink:href="#m033dbb7d93" x="84.974554" y="3.6" style="stroke: #000000; stroke-width: 0.5"/>
      </g>
     </g>
     <g id="text_2">
      <!-- 100 -->
      <g transform="translate(75.430804 236.458437)scale(0.1 -0.1)">
       <defs>
        <path id="DejaVuSerif-31" d="M 909 0 
L 909 331 
L 1722 331 
L 1722 4213 
L 781 3603 
L 781 4013 
L 1919 4750 
L 2350 4750 
L 2350 331 
L 3163 331 
L 3163 0 
L 909 0 
z
" transform="scale(0.015625)"/>
       </defs>
       <use xlink:href="#DejaVuSerif-31"/>
       <use xlink:href="#DejaVuSerif-30" x="63.623047"/>
       <use xlink:href="#DejaVuSerif-30" x="127.246094"/>
      </g>
     </g>
    </g>
    <g id="xtick_3">
     <g id="line2d_7">
      <path d="M 131.7278 225.36 
L 131.7278 3.6 
" clip-path="url(#pf7c7119a40)" style="fill: none; stroke-dasharray: 1.85,0.8; stroke-dashoffset: 0; stroke: #000000; stroke-opacity: 0.5; stroke-width: 0.5"/>
     </g>
     <g id="line2d_8">
      <g>
       <use xlink:href="#mad73fae5fc" x="131.7278" y="225.36" style="stroke: #000000; stroke-width: 0.5"/>
      </g>
     </g>
     <g id="line2d_9">
      <g>
       <use xlink:href="#m033dbb7d93" x="131.7278" y="3.6" style="stroke: #000000; stroke-width: 0.5"/>
      </g>
     </g>
     <g id="text_3">
      <!-- 200 -->
      <g transform="translate(122.18405 236.458437)scale(0.1 -0.1)">
       <defs>
        <path id="DejaVuSerif-32" d="M 819 3553 
L 469 3553 
L 469 4384 
Q 803 4563 1142 4656 
Q 1481 4750 1806 4750 
Q 2534 4750 2956 4397 
Q 3378 4044 3378 3438 
Q 3378 2753 2422 1800 
Q 2347 1728 2309 1691 
L 1131 513 
L 3078 513 
L 3078 1088 
L 3444 1088 
L 3444 0 
L 434 0 
L 434 341 
L 1850 1753 
Q 2319 2222 2519 2614 
Q 2719 3006 2719 3438 
Q 2719 3909 2473 4175 
Q 2228 4441 1797 4441 
Q 1350 4441 1106 4219 
Q 863 3997 819 3553 
z
" transform="scale(0.015625)"/>
       </defs>
       <use xlink:href="#DejaVuSerif-32"/>
       <use xlink:href="#DejaVuSerif-30" x="63.623047"/>
       <use xlink:href="#DejaVuSerif-30" x="127.246094"/>
      </g>
     </g>
    </g>
    <g id="xtick_4">
     <g id="line2d_10">
      <path d="M 178.481047 225.36 
L 178.481047 3.6 
" clip-path="url(#pf7c7119a40)" style="fill: none; stroke-dasharray: 1.85,0.8; stroke-dashoffset: 0; stroke: #000000; stroke-opacity: 0.5; stroke-width: 0.5"/>
     </g>
     <g id="line2d_11">
      <g>
       <use xlink:href="#mad73fae5fc" x="178.481047" y="225.36" style="stroke: #000000; stroke-width: 0.5"/>
      </g>
     </g>
     <g id="line2d_12">
      <g>
       <use xlink:href="#m033dbb7d93" x="178.481047" y="3.6" style="stroke: #000000; stroke-width: 0.5"/>
      </g>
     </g>
     <g id="text_4">
      <!-- 300 -->
      <g transform="translate(168.937297 236.458437)scale(0.1 -0.1)">
       <defs>
        <path id="DejaVuSerif-33" d="M 622 4469 
Q 988 4606 1323 4678 
Q 1659 4750 1953 4750 
Q 2638 4750 3022 4454 
Q 3406 4159 3406 3634 
Q 3406 3213 3140 2930 
Q 2875 2647 2388 2547 
Q 2963 2466 3280 2130 
Q 3597 1794 3597 1259 
Q 3597 606 3158 257 
Q 2719 -91 1894 -91 
Q 1528 -91 1179 -12 
Q 831 66 488 225 
L 488 1131 
L 838 1131 
Q 869 681 1141 450 
Q 1413 219 1906 219 
Q 2384 219 2661 495 
Q 2938 772 2938 1253 
Q 2938 1803 2653 2086 
Q 2369 2369 1819 2369 
L 1522 2369 
L 1522 2688 
L 1678 2688 
Q 2225 2688 2498 2914 
Q 2772 3141 2772 3597 
Q 2772 4006 2547 4223 
Q 2322 4441 1900 4441 
Q 1478 4441 1245 4241 
Q 1013 4041 972 3647 
L 622 3647 
L 622 4469 
z
" transform="scale(0.015625)"/>
       </defs>
       <use xlink:href="#DejaVuSerif-33"/>
       <use xlink:href="#DejaVuSerif-30" x="63.623047"/>
       <use xlink:href="#DejaVuSerif-30" x="127.246094"/>
      </g>
     </g>
    </g>
    <g id="xtick_5">
     <g id="line2d_13">
      <path d="M 225.234294 225.36 
L 225.234294 3.6 
" clip-path="url(#pf7c7119a40)" style="fill: none; stroke-dasharray: 1.85,0.8; stroke-dashoffset: 0; stroke: #000000; stroke-opacity: 0.5; stroke-width: 0.5"/>
     </g>
     <g id="line2d_14">
      <g>
       <use xlink:href="#mad73fae5fc" x="225.234294" y="225.36" style="stroke: #000000; stroke-width: 0.5"/>
      </g>
     </g>
     <g id="line2d_15">
      <g>
       <use xlink:href="#m033dbb7d93" x="225.234294" y="3.6" style="stroke: #000000; stroke-width: 0.5"/>
      </g>
     </g>
     <g id="text_5">
      <!-- 400 -->
      <g transform="translate(215.690544 236.458437)scale(0.1 -0.1)">
       <defs>
        <path id="DejaVuSerif-34" d="M 2234 1581 
L 2234 4063 
L 641 1581 
L 2234 1581 
z
M 3609 0 
L 1484 0 
L 1484 331 
L 2234 331 
L 2234 1247 
L 197 1247 
L 197 1588 
L 2241 4750 
L 2859 4750 
L 2859 1581 
L 3750 1581 
L 3750 1247 
L 2859 1247 
L 2859 331 
L 3609 331 
L 3609 0 
z
" transform="scale(0.015625)"/>
       </defs>
       <use xlink:href="#DejaVuSerif-34"/>
       <use xlink:href="#DejaVuSerif-30" x="63.623047"/>
       <use xlink:href="#DejaVuSerif-30" x="127.246094"/>
      </g>
     </g>
    </g>
    <g id="xtick_6">
     <g id="line2d_16">
      <path d="M 271.987541 225.36 
L 271.987541 3.6 
" clip-path="url(#pf7c7119a40)" style="fill: none; stroke-dasharray: 1.85,0.8; stroke-dashoffset: 0; stroke: #000000; stroke-opacity: 0.5; stroke-width: 0.5"/>
     </g>
     <g id="line2d_17">
      <g>
       <use xlink:href="#mad73fae5fc" x="271.987541" y="225.36" style="stroke: #000000; stroke-width: 0.5"/>
      </g>
     </g>
     <g id="line2d_18">
      <g>
       <use xlink:href="#m033dbb7d93" x="271.987541" y="3.6" style="stroke: #000000; stroke-width: 0.5"/>
      </g>
     </g>
     <g id="text_6">
      <!-- 500 -->
      <g transform="translate(262.443791 236.458437)scale(0.1 -0.1)">
       <defs>
        <path id="DejaVuSerif-35" d="M 3219 4666 
L 3219 4153 
L 1081 4153 
L 1081 2816 
Q 1244 2928 1461 2984 
Q 1678 3041 1947 3041 
Q 2703 3041 3140 2622 
Q 3578 2203 3578 1478 
Q 3578 738 3136 323 
Q 2694 -91 1894 -91 
Q 1572 -91 1234 -12 
Q 897 66 544 225 
L 544 1131 
L 897 1131 
Q 925 688 1179 453 
Q 1434 219 1894 219 
Q 2388 219 2653 544 
Q 2919 869 2919 1478 
Q 2919 2084 2655 2407 
Q 2391 2731 1894 2731 
Q 1613 2731 1398 2631 
Q 1184 2531 1019 2322 
L 750 2322 
L 750 4666 
L 3219 4666 
z
" transform="scale(0.015625)"/>
       </defs>
       <use xlink:href="#DejaVuSerif-35"/>
       <use xlink:href="#DejaVuSerif-30" x="63.623047"/>
       <use xlink:href="#DejaVuSerif-30" x="127.246094"/>
      </g>
     </g>
    </g>
    <g id="xtick_7">
     <g id="line2d_19">
      <path d="M 318.740787 225.36 
L 318.740787 3.6 
" clip-path="url(#pf7c7119a40)" style="fill: none; stroke-dasharray: 1.85,0.8; stroke-dashoffset: 0; stroke: #000000; stroke-opacity: 0.5; stroke-width: 0.5"/>
     </g>
     <g id="line2d_20">
      <g>
       <use xlink:href="#mad73fae5fc" x="318.740787" y="225.36" style="stroke: #000000; stroke-width: 0.5"/>
      </g>
     </g>
     <g id="line2d_21">
      <g>
       <use xlink:href="#m033dbb7d93" x="318.740787" y="3.6" style="stroke: #000000; stroke-width: 0.5"/>
      </g>
     </g>
     <g id="text_7">
      <!-- 600 -->
      <g transform="translate(309.197037 236.458437)scale(0.1 -0.1)">
       <defs>
        <path id="DejaVuSerif-36" d="M 2094 219 
Q 2534 219 2771 542 
Q 3009 866 3009 1472 
Q 3009 2078 2771 2401 
Q 2534 2725 2094 2725 
Q 1647 2725 1412 2412 
Q 1178 2100 1178 1509 
Q 1178 888 1415 553 
Q 1653 219 2094 219 
z
M 1075 2569 
Q 1288 2803 1556 2918 
Q 1825 3034 2163 3034 
Q 2859 3034 3264 2615 
Q 3669 2197 3669 1472 
Q 3669 763 3233 336 
Q 2797 -91 2069 -91 
Q 1278 -91 853 498 
Q 428 1088 428 2181 
Q 428 3406 931 4078 
Q 1434 4750 2350 4750 
Q 2597 4750 2869 4703 
Q 3141 4656 3425 4563 
L 3425 3794 
L 3072 3794 
Q 3034 4109 2831 4275 
Q 2628 4441 2284 4441 
Q 1678 4441 1381 3981 
Q 1084 3522 1075 2569 
z
" transform="scale(0.015625)"/>
       </defs>
       <use xlink:href="#DejaVuSerif-36"/>
       <use xlink:href="#DejaVuSerif-30" x="63.623047"/>
       <use xlink:href="#DejaVuSerif-30" x="127.246094"/>
      </g>
     </g>
    </g>
    <g id="xtick_8">
     <g id="line2d_22">
      <defs>
       <path id="m94da8b35e6" d="M 0 0 
L 0 -1.5 
" style="stroke: #000000; stroke-width: 0.5"/>
      </defs>
      <g>
       <use xlink:href="#m94da8b35e6" x="28.870657" y="225.36" style="stroke: #000000; stroke-width: 0.5"/>
      </g>
     </g>
     <g id="line2d_23">
      <defs>
       <path id="ma248037769" d="M 0 0 
L 0 1.5 
" style="stroke: #000000; stroke-width: 0.5"/>
      </defs>
      <g>
       <use xlink:href="#ma248037769" x="28.870657" y="3.6" style="stroke: #000000; stroke-width: 0.5"/>
      </g>
     </g>
    </g>
    <g id="xtick_9">
     <g id="line2d_24">
      <g>
       <use xlink:href="#m94da8b35e6" x="47.571956" y="225.36" style="stroke: #000000; stroke-width: 0.5"/>
      </g>
     </g>
     <g id="line2d_25">
      <g>
       <use xlink:href="#ma248037769" x="47.571956" y="3.6" style="stroke: #000000; stroke-width: 0.5"/>
      </g>
     </g>
    </g>
    <g id="xtick_10">
     <g id="line2d_26">
      <g>
       <use xlink:href="#m94da8b35e6" x="56.922606" y="225.36" style="stroke: #000000; stroke-width: 0.5"/>
      </g>
     </g>
     <g id="line2d_27">
      <g>
       <use xlink:href="#ma248037769" x="56.922606" y="3.6" style="stroke: #000000; stroke-width: 0.5"/>
      </g>
     </g>
    </g>
    <g id="xtick_11">
     <g id="line2d_28">
      <g>
       <use xlink:href="#m94da8b35e6" x="66.273255" y="225.36" style="stroke: #000000; stroke-width: 0.5"/>
      </g>
     </g>
     <g id="line2d_29">
      <g>
       <use xlink:href="#ma248037769" x="66.273255" y="3.6" style="stroke: #000000; stroke-width: 0.5"/>
      </g>
     </g>
    </g>
    <g id="xtick_12">
     <g id="line2d_30">
      <g>
       <use xlink:href="#m94da8b35e6" x="75.623904" y="225.36" style="stroke: #000000; stroke-width: 0.5"/>
      </g>
     </g>
     <g id="line2d_31">
      <g>
       <use xlink:href="#ma248037769" x="75.623904" y="3.6" style="stroke: #000000; stroke-width: 0.5"/>
      </g>
     </g>
    </g>
    <g id="xtick_13">
     <g id="line2d_32">
      <g>
       <use xlink:href="#m94da8b35e6" x="94.325203" y="225.36" style="stroke: #000000; stroke-width: 0.5"/>
      </g>
     </g>
     <g id="line2d_33">
      <g>
       <use xlink:href="#ma248037769" x="94.325203" y="3.6" style="stroke: #000000; stroke-width: 0.5"/>
      </g>
     </g>
    </g>
    <g id="xtick_14">
     <g id="line2d_34">
      <g>
       <use xlink:href="#m94da8b35e6" x="103.675852" y="225.36" style="stroke: #000000; stroke-width: 0.5"/>
      </g>
     </g>
     <g id="line2d_35">
      <g>
       <use xlink:href="#ma248037769" x="103.675852" y="3.6" style="stroke: #000000; stroke-width: 0.5"/>
      </g>
     </g>
    </g>
    <g id="xtick_15">
     <g id="line2d_36">
      <g>
       <use xlink:href="#m94da8b35e6" x="113.026502" y="225.36" style="stroke: #000000; stroke-width: 0.5"/>
      </g>
     </g>
     <g id="line2d_37">
      <g>
       <use xlink:href="#ma248037769" x="113.026502" y="3.6" style="stroke: #000000; stroke-width: 0.5"/>
      </g>
     </g>
    </g>
    <g id="xtick_16">
     <g id="line2d_38">
      <g>
       <use xlink:href="#m94da8b35e6" x="122.377151" y="225.36" style="stroke: #000000; stroke-width: 0.5"/>
      </g>
     </g>
     <g id="line2d_39">
      <g>
       <use xlink:href="#ma248037769" x="122.377151" y="3.6" style="stroke: #000000; stroke-width: 0.5"/>
      </g>
     </g>
    </g>
    <g id="xtick_17">
     <g id="line2d_40">
      <g>
       <use xlink:href="#m94da8b35e6" x="141.07845" y="225.36" style="stroke: #000000; stroke-width: 0.5"/>
      </g>
     </g>
     <g id="line2d_41">
      <g>
       <use xlink:href="#ma248037769" x="141.07845" y="3.6" style="stroke: #000000; stroke-width: 0.5"/>
      </g>
     </g>
    </g>
    <g id="xtick_18">
     <g id="line2d_42">
      <g>
       <use xlink:href="#m94da8b35e6" x="150.429099" y="225.36" style="stroke: #000000; stroke-width: 0.5"/>
      </g>
     </g>
     <g id="line2d_43">
      <g>
       <use xlink:href="#ma248037769" x="150.429099" y="3.6" style="stroke: #000000; stroke-width: 0.5"/>
      </g>
     </g>
    </g>
    <g id="xtick_19">
     <g id="line2d_44">
      <g>
       <use xlink:href="#m94da8b35e6" x="159.779748" y="225.36" style="stroke: #000000; stroke-width: 0.5"/>
      </g>
     </g>
     <g id="line2d_45">
      <g>
       <use xlink:href="#ma248037769" x="159.779748" y="3.6" style="stroke: #000000; stroke-width: 0.5"/>
      </g>
     </g>
    </g>
    <g id="xtick_20">
     <g id="line2d_46">
      <g>
       <use xlink:href="#m94da8b35e6" x="169.130398" y="225.36" style="stroke: #000000; stroke-width: 0.5"/>
      </g>
     </g>
     <g id="line2d_47">
      <g>
       <use xlink:href="#ma248037769" x="169.130398" y="3.6" style="stroke: #000000; stroke-width: 0.5"/>
      </g>
     </g>
    </g>
    <g id="xtick_21">
     <g id="line2d_48">
      <g>
       <use xlink:href="#m94da8b35e6" x="187.831696" y="225.36" style="stroke: #000000; stroke-width: 0.5"/>
      </g>
     </g>
     <g id="line2d_49">
      <g>
       <use xlink:href="#ma248037769" x="187.831696" y="3.6" style="stroke: #000000; stroke-width: 0.5"/>
      </g>
     </g>
    </g>
    <g id="xtick_22">
     <g id="line2d_50">
      <g>
       <use xlink:href="#m94da8b35e6" x="197.182346" y="225.36" style="stroke: #000000; stroke-width: 0.5"/>
      </g>
     </g>
     <g id="line2d_51">
      <g>
       <use xlink:href="#ma248037769" x="197.182346" y="3.6" style="stroke: #000000; stroke-width: 0.5"/>
      </g>
     </g>
    </g>
    <g id="xtick_23">
     <g id="line2d_52">
      <g>
       <use xlink:href="#m94da8b35e6" x="206.532995" y="225.36" style="stroke: #000000; stroke-width: 0.5"/>
      </g>
     </g>
     <g id="line2d_53">
      <g>
       <use xlink:href="#ma248037769" x="206.532995" y="3.6" style="stroke: #000000; stroke-width: 0.5"/>
      </g>
     </g>
    </g>
    <g id="xtick_24">
     <g id="line2d_54">
      <g>
       <use xlink:href="#m94da8b35e6" x="215.883644" y="225.36" style="stroke: #000000; stroke-width: 0.5"/>
      </g>
     </g>
     <g id="line2d_55">
      <g>
       <use xlink:href="#ma248037769" x="215.883644" y="3.6" style="stroke: #000000; stroke-width: 0.5"/>
      </g>
     </g>
    </g>
    <g id="xtick_25">
     <g id="line2d_56">
      <g>
       <use xlink:href="#m94da8b35e6" x="234.584943" y="225.36" style="stroke: #000000; stroke-width: 0.5"/>
      </g>
     </g>
     <g id="line2d_57">
      <g>
       <use xlink:href="#ma248037769" x="234.584943" y="3.6" style="stroke: #000000; stroke-width: 0.5"/>
      </g>
     </g>
    </g>
    <g id="xtick_26">
     <g id="line2d_58">
      <g>
       <use xlink:href="#m94da8b35e6" x="243.935593" y="225.36" style="stroke: #000000; stroke-width: 0.5"/>
      </g>
     </g>
     <g id="line2d_59">
      <g>
       <use xlink:href="#ma248037769" x="243.935593" y="3.6" style="stroke: #000000; stroke-width: 0.5"/>
      </g>
     </g>
    </g>
    <g id="xtick_27">
     <g id="line2d_60">
      <g>
       <use xlink:href="#m94da8b35e6" x="253.286242" y="225.36" style="stroke: #000000; stroke-width: 0.5"/>
      </g>
     </g>
     <g id="line2d_61">
      <g>
       <use xlink:href="#ma248037769" x="253.286242" y="3.6" style="stroke: #000000; stroke-width: 0.5"/>
      </g>
     </g>
    </g>
    <g id="xtick_28">
     <g id="line2d_62">
      <g>
       <use xlink:href="#m94da8b35e6" x="262.636891" y="225.36" style="stroke: #000000; stroke-width: 0.5"/>
      </g>
     </g>
     <g id="line2d_63">
      <g>
       <use xlink:href="#ma248037769" x="262.636891" y="3.6" style="stroke: #000000; stroke-width: 0.5"/>
      </g>
     </g>
    </g>
    <g id="xtick_29">
     <g id="line2d_64">
      <g>
       <use xlink:href="#m94da8b35e6" x="281.33819" y="225.36" style="stroke: #000000; stroke-width: 0.5"/>
      </g>
     </g>
     <g id="line2d_65">
      <g>
       <use xlink:href="#ma248037769" x="281.33819" y="3.6" style="stroke: #000000; stroke-width: 0.5"/>
      </g>
     </g>
    </g>
    <g id="xtick_30">
     <g id="line2d_66">
      <g>
       <use xlink:href="#m94da8b35e6" x="290.688839" y="225.36" style="stroke: #000000; stroke-width: 0.5"/>
      </g>
     </g>
     <g id="line2d_67">
      <g>
       <use xlink:href="#ma248037769" x="290.688839" y="3.6" style="stroke: #000000; stroke-width: 0.5"/>
      </g>
     </g>
    </g>
    <g id="xtick_31">
     <g id="line2d_68">
      <g>
       <use xlink:href="#m94da8b35e6" x="300.039489" y="225.36" style="stroke: #000000; stroke-width: 0.5"/>
      </g>
     </g>
     <g id="line2d_69">
      <g>
       <use xlink:href="#ma248037769" x="300.039489" y="3.6" style="stroke: #000000; stroke-width: 0.5"/>
      </g>
     </g>
    </g>
    <g id="xtick_32">
     <g id="line2d_70">
      <g>
       <use xlink:href="#m94da8b35e6" x="309.390138" y="225.36" style="stroke: #000000; stroke-width: 0.5"/>
      </g>
     </g>
     <g id="line2d_71">
      <g>
       <use xlink:href="#ma248037769" x="309.390138" y="3.6" style="stroke: #000000; stroke-width: 0.5"/>
      </g>
     </g>
    </g>
    <g id="xtick_33">
     <g id="line2d_72">
      <g>
       <use xlink:href="#m94da8b35e6" x="328.091437" y="225.36" style="stroke: #000000; stroke-width: 0.5"/>
      </g>
     </g>
     <g id="line2d_73">
      <g>
       <use xlink:href="#ma248037769" x="328.091437" y="3.6" style="stroke: #000000; stroke-width: 0.5"/>
      </g>
     </g>
    </g>
    <g id="xtick_34">
     <g id="line2d_74">
      <g>
       <use xlink:href="#m94da8b35e6" x="337.442086" y="225.36" style="stroke: #000000; stroke-width: 0.5"/>
      </g>
     </g>
     <g id="line2d_75">
      <g>
       <use xlink:href="#ma248037769" x="337.442086" y="3.6" style="stroke: #000000; stroke-width: 0.5"/>
      </g>
     </g>
    </g>
    <g id="xtick_35">
     <g id="line2d_76">
      <g>
       <use xlink:href="#m94da8b35e6" x="346.792735" y="225.36" style="stroke: #000000; stroke-width: 0.5"/>
      </g>
     </g>
     <g id="line2d_77">
      <g>
       <use xlink:href="#ma248037769" x="346.792735" y="3.6" style="stroke: #000000; stroke-width: 0.5"/>
      </g>
     </g>
    </g>
    <g id="xtick_36">
     <g id="line2d_78">
      <g>
       <use xlink:href="#m94da8b35e6" x="356.143385" y="225.36" style="stroke: #000000; stroke-width: 0.5"/>
      </g>
     </g>
     <g id="line2d_79">
      <g>
       <use xlink:href="#ma248037769" x="356.143385" y="3.6" style="stroke: #000000; stroke-width: 0.5"/>
      </g>
     </g>
    </g>
   </g>
   <g id="matplotlib.axis_2">
    <g id="ytick_1">
     <g id="line2d_80">
      <path d="M 23.003125 218.174439 
L 357.803125 218.174439 
" clip-path="url(#pf7c7119a40)" style="fill: none; stroke-dasharray: 1.85,0.8; stroke-dashoffset: 0; stroke: #000000; stroke-opacity: 0.5; stroke-width: 0.5"/>
     </g>
     <g id="line2d_81">
      <defs>
       <path id="m0194f890ec" d="M 0 0 
L 3 0 
" style="stroke: #000000; stroke-width: 0.5"/>
      </defs>
      <g>
       <use xlink:href="#m0194f890ec" x="23.003125" y="218.174439" style="stroke: #000000; stroke-width: 0.5"/>
      </g>
     </g>
     <g id="line2d_82">
      <defs>
       <path id="m2273289f95" d="M 0 0 
L -3 0 
" style="stroke: #000000; stroke-width: 0.5"/>
      </defs>
      <g>
       <use xlink:href="#m2273289f95" x="357.803125" y="218.174439" style="stroke: #000000; stroke-width: 0.5"/>
      </g>
     </g>
     <g id="text_8">
      <!-- 0.0 -->
      <g transform="translate(3.6 221.973658)scale(0.1 -0.1)">
       <defs>
        <path id="DejaVuSerif-2e" d="M 603 325 
Q 603 500 722 622 
Q 841 744 1019 744 
Q 1191 744 1312 622 
Q 1434 500 1434 325 
Q 1434 153 1312 31 
Q 1191 -91 1019 -91 
Q 841 -91 722 29 
Q 603 150 603 325 
z
" transform="scale(0.015625)"/>
       </defs>
       <use xlink:href="#DejaVuSerif-30"/>
       <use xlink:href="#DejaVuSerif-2e" x="63.623047"/>
       <use xlink:href="#DejaVuSerif-30" x="95.410156"/>
      </g>
     </g>
    </g>
    <g id="ytick_2">
     <g id="line2d_83">
      <path d="M 23.003125 177.275551 
L 357.803125 177.275551 
" clip-path="url(#pf7c7119a40)" style="fill: none; stroke-dasharray: 1.85,0.8; stroke-dashoffset: 0; stroke: #000000; stroke-opacity: 0.5; stroke-width: 0.5"/>
     </g>
     <g id="line2d_84">
      <g>
       <use xlink:href="#m0194f890ec" x="23.003125" y="177.275551" style="stroke: #000000; stroke-width: 0.5"/>
      </g>
     </g>
     <g id="line2d_85">
      <g>
       <use xlink:href="#m2273289f95" x="357.803125" y="177.275551" style="stroke: #000000; stroke-width: 0.5"/>
      </g>
     </g>
     <g id="text_9">
      <!-- 0.2 -->
      <g transform="translate(3.6 181.07477)scale(0.1 -0.1)">
       <use xlink:href="#DejaVuSerif-30"/>
       <use xlink:href="#DejaVuSerif-2e" x="63.623047"/>
       <use xlink:href="#DejaVuSerif-32" x="95.410156"/>
      </g>
     </g>
    </g>
    <g id="ytick_3">
     <g id="line2d_86">
      <path d="M 23.003125 136.376664 
L 357.803125 136.376664 
" clip-path="url(#pf7c7119a40)" style="fill: none; stroke-dasharray: 1.85,0.8; stroke-dashoffset: 0; stroke: #000000; stroke-opacity: 0.5; stroke-width: 0.5"/>
     </g>
     <g id="line2d_87">
      <g>
       <use xlink:href="#m0194f890ec" x="23.003125" y="136.376664" style="stroke: #000000; stroke-width: 0.5"/>
      </g>
     </g>
     <g id="line2d_88">
      <g>
       <use xlink:href="#m2273289f95" x="357.803125" y="136.376664" style="stroke: #000000; stroke-width: 0.5"/>
      </g>
     </g>
     <g id="text_10">
      <!-- 0.4 -->
      <g transform="translate(3.6 140.175882)scale(0.1 -0.1)">
       <use xlink:href="#DejaVuSerif-30"/>
       <use xlink:href="#DejaVuSerif-2e" x="63.623047"/>
       <use xlink:href="#DejaVuSerif-34" x="95.410156"/>
      </g>
     </g>
    </g>
    <g id="ytick_4">
     <g id="line2d_89">
      <path d="M 23.003125 95.477776 
L 357.803125 95.477776 
" clip-path="url(#pf7c7119a40)" style="fill: none; stroke-dasharray: 1.85,0.8; stroke-dashoffset: 0; stroke: #000000; stroke-opacity: 0.5; stroke-width: 0.5"/>
     </g>
     <g id="line2d_90">
      <g>
       <use xlink:href="#m0194f890ec" x="23.003125" y="95.477776" style="stroke: #000000; stroke-width: 0.5"/>
      </g>
     </g>
     <g id="line2d_91">
      <g>
       <use xlink:href="#m2273289f95" x="357.803125" y="95.477776" style="stroke: #000000; stroke-width: 0.5"/>
      </g>
     </g>
     <g id="text_11">
      <!-- 0.6 -->
      <g transform="translate(3.6 99.276994)scale(0.1 -0.1)">
       <use xlink:href="#DejaVuSerif-30"/>
       <use xlink:href="#DejaVuSerif-2e" x="63.623047"/>
       <use xlink:href="#DejaVuSerif-36" x="95.410156"/>
      </g>
     </g>
    </g>
    <g id="ytick_5">
     <g id="line2d_92">
      <path d="M 23.003125 54.578888 
L 357.803125 54.578888 
" clip-path="url(#pf7c7119a40)" style="fill: none; stroke-dasharray: 1.85,0.8; stroke-dashoffset: 0; stroke: #000000; stroke-opacity: 0.5; stroke-width: 0.5"/>
     </g>
     <g id="line2d_93">
      <g>
       <use xlink:href="#m0194f890ec" x="23.003125" y="54.578888" style="stroke: #000000; stroke-width: 0.5"/>
      </g>
     </g>
     <g id="line2d_94">
      <g>
       <use xlink:href="#m2273289f95" x="357.803125" y="54.578888" style="stroke: #000000; stroke-width: 0.5"/>
      </g>
     </g>
     <g id="text_12">
      <!-- 0.8 -->
      <g transform="translate(3.6 58.378107)scale(0.1 -0.1)">
       <defs>
        <path id="DejaVuSerif-38" d="M 2981 1275 
Q 2981 1775 2732 2051 
Q 2484 2328 2034 2328 
Q 1584 2328 1336 2051 
Q 1088 1775 1088 1275 
Q 1088 772 1336 495 
Q 1584 219 2034 219 
Q 2484 219 2732 495 
Q 2981 772 2981 1275 
z
M 2853 3541 
Q 2853 3966 2637 4203 
Q 2422 4441 2034 4441 
Q 1650 4441 1433 4203 
Q 1216 3966 1216 3541 
Q 1216 3113 1433 2875 
Q 1650 2638 2034 2638 
Q 2422 2638 2637 2875 
Q 2853 3113 2853 3541 
z
M 2516 2484 
Q 3047 2413 3344 2092 
Q 3641 1772 3641 1275 
Q 3641 619 3225 264 
Q 2809 -91 2034 -91 
Q 1263 -91 845 264 
Q 428 619 428 1275 
Q 428 1772 725 2092 
Q 1022 2413 1556 2484 
Q 1084 2569 832 2842 
Q 581 3116 581 3541 
Q 581 4103 968 4426 
Q 1356 4750 2034 4750 
Q 2713 4750 3100 4426 
Q 3488 4103 3488 3541 
Q 3488 3116 3236 2842 
Q 2984 2569 2516 2484 
z
" transform="scale(0.015625)"/>
       </defs>
       <use xlink:href="#DejaVuSerif-30"/>
       <use xlink:href="#DejaVuSerif-2e" x="63.623047"/>
       <use xlink:href="#DejaVuSerif-38" x="95.410156"/>
      </g>
     </g>
    </g>
    <g id="ytick_6">
     <g id="line2d_95">
      <path d="M 23.003125 13.68 
L 357.803125 13.68 
" clip-path="url(#pf7c7119a40)" style="fill: none; stroke-dasharray: 1.85,0.8; stroke-dashoffset: 0; stroke: #000000; stroke-opacity: 0.5; stroke-width: 0.5"/>
     </g>
     <g id="line2d_96">
      <g>
       <use xlink:href="#m0194f890ec" x="23.003125" y="13.68" style="stroke: #000000; stroke-width: 0.5"/>
      </g>
     </g>
     <g id="line2d_97">
      <g>
       <use xlink:href="#m2273289f95" x="357.803125" y="13.68" style="stroke: #000000; stroke-width: 0.5"/>
      </g>
     </g>
     <g id="text_13">
      <!-- 1.0 -->
      <g transform="translate(3.6 17.479219)scale(0.1 -0.1)">
       <use xlink:href="#DejaVuSerif-31"/>
       <use xlink:href="#DejaVuSerif-2e" x="63.623047"/>
       <use xlink:href="#DejaVuSerif-30" x="95.410156"/>
      </g>
     </g>
    </g>
    <g id="ytick_7">
     <g id="line2d_98">
      <defs>
       <path id="mdd8d307087" d="M 0 0 
L 1.5 0 
" style="stroke: #000000; stroke-width: 0.5"/>
      </defs>
      <g>
       <use xlink:href="#mdd8d307087" x="23.003125" y="207.949717" style="stroke: #000000; stroke-width: 0.5"/>
      </g>
     </g>
     <g id="line2d_99">
      <defs>
       <path id="m4cac3f8c52" d="M 0 0 
L -1.5 0 
" style="stroke: #000000; stroke-width: 0.5"/>
      </defs>
      <g>
       <use xlink:href="#m4cac3f8c52" x="357.803125" y="207.949717" style="stroke: #000000; stroke-width: 0.5"/>
      </g>
     </g>
    </g>
    <g id="ytick_8">
     <g id="line2d_100">
      <g>
       <use xlink:href="#mdd8d307087" x="23.003125" y="197.724995" style="stroke: #000000; stroke-width: 0.5"/>
      </g>
     </g>
     <g id="line2d_101">
      <g>
       <use xlink:href="#m4cac3f8c52" x="357.803125" y="197.724995" style="stroke: #000000; stroke-width: 0.5"/>
      </g>
     </g>
    </g>
    <g id="ytick_9">
     <g id="line2d_102">
      <g>
       <use xlink:href="#mdd8d307087" x="23.003125" y="187.500273" style="stroke: #000000; stroke-width: 0.5"/>
      </g>
     </g>
     <g id="line2d_103">
      <g>
       <use xlink:href="#m4cac3f8c52" x="357.803125" y="187.500273" style="stroke: #000000; stroke-width: 0.5"/>
      </g>
     </g>
    </g>
    <g id="ytick_10">
     <g id="line2d_104">
      <g>
       <use xlink:href="#mdd8d307087" x="23.003125" y="167.05083" style="stroke: #000000; stroke-width: 0.5"/>
      </g>
     </g>
     <g id="line2d_105">
      <g>
       <use xlink:href="#m4cac3f8c52" x="357.803125" y="167.05083" style="stroke: #000000; stroke-width: 0.5"/>
      </g>
     </g>
    </g>
    <g id="ytick_11">
     <g id="line2d_106">
      <g>
       <use xlink:href="#mdd8d307087" x="23.003125" y="156.826108" style="stroke: #000000; stroke-width: 0.5"/>
      </g>
     </g>
     <g id="line2d_107">
      <g>
       <use xlink:href="#m4cac3f8c52" x="357.803125" y="156.826108" style="stroke: #000000; stroke-width: 0.5"/>
      </g>
     </g>
    </g>
    <g id="ytick_12">
     <g id="line2d_108">
      <g>
       <use xlink:href="#mdd8d307087" x="23.003125" y="146.601386" style="stroke: #000000; stroke-width: 0.5"/>
      </g>
     </g>
     <g id="line2d_109">
      <g>
       <use xlink:href="#m4cac3f8c52" x="357.803125" y="146.601386" style="stroke: #000000; stroke-width: 0.5"/>
      </g>
     </g>
    </g>
    <g id="ytick_13">
     <g id="line2d_110">
      <g>
       <use xlink:href="#mdd8d307087" x="23.003125" y="126.151942" style="stroke: #000000; stroke-width: 0.5"/>
      </g>
     </g>
     <g id="line2d_111">
      <g>
       <use xlink:href="#m4cac3f8c52" x="357.803125" y="126.151942" style="stroke: #000000; stroke-width: 0.5"/>
      </g>
     </g>
    </g>
    <g id="ytick_14">
     <g id="line2d_112">
      <g>
       <use xlink:href="#mdd8d307087" x="23.003125" y="115.92722" style="stroke: #000000; stroke-width: 0.5"/>
      </g>
     </g>
     <g id="line2d_113">
      <g>
       <use xlink:href="#m4cac3f8c52" x="357.803125" y="115.92722" style="stroke: #000000; stroke-width: 0.5"/>
      </g>
     </g>
    </g>
    <g id="ytick_15">
     <g id="line2d_114">
      <g>
       <use xlink:href="#mdd8d307087" x="23.003125" y="105.702498" style="stroke: #000000; stroke-width: 0.5"/>
      </g>
     </g>
     <g id="line2d_115">
      <g>
       <use xlink:href="#m4cac3f8c52" x="357.803125" y="105.702498" style="stroke: #000000; stroke-width: 0.5"/>
      </g>
     </g>
    </g>
    <g id="ytick_16">
     <g id="line2d_116">
      <g>
       <use xlink:href="#mdd8d307087" x="23.003125" y="85.253054" style="stroke: #000000; stroke-width: 0.5"/>
      </g>
     </g>
     <g id="line2d_117">
      <g>
       <use xlink:href="#m4cac3f8c52" x="357.803125" y="85.253054" style="stroke: #000000; stroke-width: 0.5"/>
      </g>
     </g>
    </g>
    <g id="ytick_17">
     <g id="line2d_118">
      <g>
       <use xlink:href="#mdd8d307087" x="23.003125" y="75.028332" style="stroke: #000000; stroke-width: 0.5"/>
      </g>
     </g>
     <g id="line2d_119">
      <g>
       <use xlink:href="#m4cac3f8c52" x="357.803125" y="75.028332" style="stroke: #000000; stroke-width: 0.5"/>
      </g>
     </g>
    </g>
    <g id="ytick_18">
     <g id="line2d_120">
      <g>
       <use xlink:href="#mdd8d307087" x="23.003125" y="64.80361" style="stroke: #000000; stroke-width: 0.5"/>
      </g>
     </g>
     <g id="line2d_121">
      <g>
       <use xlink:href="#m4cac3f8c52" x="357.803125" y="64.80361" style="stroke: #000000; stroke-width: 0.5"/>
      </g>
     </g>
    </g>
    <g id="ytick_19">
     <g id="line2d_122">
      <g>
       <use xlink:href="#mdd8d307087" x="23.003125" y="44.354166" style="stroke: #000000; stroke-width: 0.5"/>
      </g>
     </g>
     <g id="line2d_123">
      <g>
       <use xlink:href="#m4cac3f8c52" x="357.803125" y="44.354166" style="stroke: #000000; stroke-width: 0.5"/>
      </g>
     </g>
    </g>
    <g id="ytick_20">
     <g id="line2d_124">
      <g>
       <use xlink:href="#mdd8d307087" x="23.003125" y="34.129444" style="stroke: #000000; stroke-width: 0.5"/>
      </g>
     </g>
     <g id="line2d_125">
      <g>
       <use xlink:href="#m4cac3f8c52" x="357.803125" y="34.129444" style="stroke: #000000; stroke-width: 0.5"/>
      </g>
     </g>
    </g>
    <g id="ytick_21">
     <g id="line2d_126">
      <g>
       <use xlink:href="#mdd8d307087" x="23.003125" y="23.904722" style="stroke: #000000; stroke-width: 0.5"/>
      </g>
     </g>
     <g id="line2d_127">
      <g>
       <use xlink:href="#m4cac3f8c52" x="357.803125" y="23.904722" style="stroke: #000000; stroke-width: 0.5"/>
      </g>
     </g>
    </g>
   </g>
   <g id="PolyCollection_1">
    <defs>
     <path id="mb9858b0101" d="M 38.221307 -26.858125 
L 38.221307 -26.879052 
L 38.688839 -26.879052 
L 39.156372 -26.879052 
L 39.623904 -26.879052 
L 40.091437 -26.879052 
L 40.558969 -26.879052 
L 41.026502 -26.879052 
L 41.494034 -27.14128 
L 41.961567 -27.14128 
L 42.429099 -27.14128 
L 42.896631 -27.14128 
L 43.364164 -27.14128 
L 43.831696 -27.14128 
L 44.299229 -27.14128 
L 44.766761 -27.256311 
L 45.234294 -27.256311 
L 45.701826 -27.256311 
L 46.169359 -27.256311 
L 46.636891 -27.256311 
L 47.104424 -27.256311 
L 47.571956 -27.256311 
L 48.039489 -28.907248 
L 48.507021 -28.907248 
L 48.974554 -28.907248 
L 49.442086 -28.907248 
L 49.909619 -28.907248 
L 50.377151 -28.907248 
L 50.844683 -28.907248 
L 51.312216 -29.279698 
L 51.779748 -29.279698 
L 52.247281 -29.279698 
L 52.714813 -29.279698 
L 53.182346 -29.279698 
L 53.649878 -29.279698 
L 54.117411 -29.279698 
L 54.584943 -29.439109 
L 55.052476 -29.439109 
L 55.520008 -29.439109 
L 55.987541 -29.439109 
L 56.455073 -29.439109 
L 56.922606 -29.439109 
L 57.390138 -29.439109 
L 57.85767 -29.439487 
L 58.325203 -29.439487 
L 58.792735 -29.439487 
L 59.260268 -29.439487 
L 59.7278 -29.439487 
L 60.195333 -29.439487 
L 60.662865 -29.439487 
L 61.130398 -29.439487 
L 61.59793 -29.439487 
L 62.065463 -30.445096 
L 62.532995 -30.445096 
L 63.000528 -30.445096 
L 63.46806 -30.445096 
L 63.935593 -30.445096 
L 64.403125 -30.445096 
L 64.870657 -30.445096 
L 65.33819 -30.445652 
L 65.805722 -30.445652 
L 66.273255 -30.445652 
L 66.740787 -30.445652 
L 67.20832 -30.445652 
L 67.675852 -30.445652 
L 68.143385 -30.445652 
L 68.610917 -30.661528 
L 69.07845 -30.661528 
L 69.545982 -30.661528 
L 70.013515 -30.661528 
L 70.481047 -30.661528 
L 70.94858 -30.661528 
L 71.416112 -30.661528 
L 71.883644 -30.678182 
L 72.351177 -30.678182 
L 72.818709 -31.419379 
L 73.286242 -31.419379 
L 73.753774 -31.41988 
L 74.221307 -31.41988 
L 74.688839 -31.41988 
L 75.156372 -31.41988 
L 75.623904 -31.41988 
L 76.091437 -31.41988 
L 76.558969 -31.41988 
L 77.026502 -32.765188 
L 77.494034 -32.765188 
L 77.961567 -32.765188 
L 78.429099 -32.765188 
L 78.896631 -32.765188 
L 79.364164 -32.765188 
L 79.831696 -32.765188 
L 80.299229 -32.89599 
L 80.766761 -32.89599 
L 81.234294 -32.89599 
L 81.701826 -32.89599 
L 82.169359 -32.89599 
L 82.636891 -32.89599 
L 83.104424 -32.89599 
L 83.571956 -33.107992 
L 84.039489 -33.107992 
L 84.507021 -33.107992 
L 84.974554 -33.107992 
L 85.442086 -33.107992 
L 85.909619 -33.107992 
L 86.377151 -33.107992 
L 86.844683 -33.10895 
L 87.312216 -33.10895 
L 87.779748 -33.10895 
L 88.247281 -33.10895 
L 88.714813 -33.10895 
L 89.182346 -33.10895 
L 89.649878 -33.10895 
L 90.117411 -33.304497 
L 90.584943 -33.304497 
L 91.052476 -33.317714 
L 91.520008 -33.317714 
L 91.987541 -33.317714 
L 92.455073 -33.317714 
L 92.922606 -33.317714 
L 93.390138 -33.317714 
L 93.85767 -33.317714 
L 94.325203 -33.445108 
L 94.792735 -33.445108 
L 95.260268 -33.445108 
L 95.7278 -33.445108 
L 96.195333 -33.445108 
L 96.662865 -33.445108 
L 97.130398 -33.445108 
L 97.59793 -33.449625 
L 98.065463 -33.449625 
L 98.532995 -33.449625 
L 99.000528 -33.449625 
L 99.46806 -33.449625 
L 99.935593 -33.449625 
L 100.403125 -33.449625 
L 100.870657 -34.444451 
L 101.33819 -34.444451 
L 101.805722 -34.444451 
L 102.273255 -34.444451 
L 102.740787 -34.444451 
L 103.20832 -34.444451 
L 103.675852 -34.444451 
L 104.143385 -34.543935 
L 104.610917 -34.543935 
L 105.07845 -34.543935 
L 105.545982 -34.543935 
L 106.013515 -34.543935 
L 106.481047 -34.543935 
L 106.94858 -34.543935 
L 107.416112 -34.558234 
L 107.883644 -34.558234 
L 108.351177 -34.558234 
L 108.818709 -34.558234 
L 109.286242 -34.558234 
L 109.753774 -34.558234 
L 110.221307 -34.558234 
L 110.688839 -34.563352 
L 111.156372 -34.563352 
L 111.623904 -34.563352 
L 112.091437 -34.563352 
L 112.558969 -34.563352 
L 113.026502 -34.563352 
L 113.494034 -34.563352 
L 113.961567 -34.689204 
L 114.429099 -34.689204 
L 114.896631 -34.689204 
L 115.364164 -34.689204 
L 115.831696 -34.689204 
L 116.299229 -34.689204 
L 116.766761 -34.689204 
L 117.234294 -34.690092 
L 117.701826 -34.690092 
L 118.169359 -34.775473 
L 118.636891 -34.775473 
L 119.104424 -35.012215 
L 119.571956 -35.012215 
L 120.039489 -35.013815 
L 120.507021 -35.013815 
L 120.974554 -35.013815 
L 121.442086 -35.013815 
L 121.909619 -35.013815 
L 122.377151 -35.013815 
L 122.844683 -35.013815 
L 123.312216 -35.013833 
L 123.779748 -35.980574 
L 124.247281 -35.980574 
L 124.714813 -35.980574 
L 125.182346 -35.980574 
L 125.649878 -35.980574 
L 126.117411 -35.980574 
L 126.584943 -35.980574 
L 127.052476 -35.982086 
L 127.520008 -35.982086 
L 127.987541 -36.776886 
L 128.455073 -36.776886 
L 128.922606 -36.776886 
L 129.390138 -36.776886 
L 129.85767 -36.776886 
L 130.325203 -36.776886 
L 130.792735 -36.776886 
L 131.260268 -36.914915 
L 131.7278 -36.914915 
L 132.195333 -36.914915 
L 132.662865 -36.914915 
L 133.130398 -36.914915 
L 133.59793 -36.914915 
L 134.065463 -36.914915 
L 134.532995 -36.966722 
L 135.000528 -36.966722 
L 135.46806 -36.966722 
L 135.935593 -36.966722 
L 136.403125 -36.966722 
L 136.870657 -36.966722 
L 137.33819 -36.966722 
L 137.805722 -38.597563 
L 138.273255 -38.597563 
L 138.740787 -38.597563 
L 139.20832 -38.597563 
L 139.675852 -38.597563 
L 140.143385 -38.597563 
L 140.610917 -38.597563 
L 141.07845 -38.652104 
L 141.545982 -38.652104 
L 142.013515 -38.652104 
L 142.481047 -38.652104 
L 142.94858 -38.652104 
L 143.416112 -38.652104 
L 143.883644 -38.652104 
L 144.351177 -38.652745 
L 144.818709 -38.85886 
L 145.286242 -38.85886 
L 145.753774 -38.85886 
L 146.221307 -38.85886 
L 146.688839 -38.85886 
L 147.156372 -38.85886 
L 147.623904 -38.85886 
L 148.091437 -39.009364 
L 148.558969 -39.021265 
L 149.026502 -39.314522 
L 149.494034 -39.314522 
L 149.961567 -40.445763 
L 150.429099 -40.445763 
L 150.896631 -40.445763 
L 151.364164 -40.445763 
L 151.831696 -40.445763 
L 152.299229 -40.445763 
L 152.766761 -40.445763 
L 153.234294 -40.64872 
L 153.701826 -40.64872 
L 154.169359 -41.752074 
L 154.636891 -41.752074 
L 155.104424 -41.752074 
L 155.571956 -41.752074 
L 156.039489 -41.752074 
L 156.507021 -41.752074 
L 156.974554 -41.752074 
L 157.442086 -42.26818 
L 157.909619 -42.26818 
L 158.377151 -42.26818 
L 158.844683 -42.26818 
L 159.312216 -42.26818 
L 159.779748 -42.26818 
L 160.247281 -42.26818 
L 160.714813 -46.327813 
L 161.182346 -46.746184 
L 161.649878 -46.746184 
L 162.117411 -46.746184 
L 162.584943 -46.746184 
L 163.052476 -46.746184 
L 163.520008 -46.746184 
L 163.987541 -46.746184 
L 164.455073 -46.978114 
L 164.922606 -46.978114 
L 165.390138 -47.788314 
L 165.85767 -47.788314 
L 166.325203 -47.788314 
L 166.792735 -47.788314 
L 167.260268 -47.788314 
L 167.7278 -47.788314 
L 168.195333 -47.788314 
L 168.662865 -47.794087 
L 169.130398 -47.794087 
L 169.59793 -47.794087 
L 170.065463 -47.794087 
L 170.532995 -47.794087 
L 171.000528 -47.794087 
L 171.46806 -47.794087 
L 171.935593 -50.440468 
L 172.403125 -50.440468 
L 172.870657 -50.440468 
L 173.33819 -50.440468 
L 173.805722 -50.440468 
L 174.273255 -50.440468 
L 174.740787 -50.440468 
L 175.20832 -50.468341 
L 175.675852 -50.468341 
L 176.143385 -50.468341 
L 176.610917 -50.468341 
L 177.07845 -50.468341 
L 177.545982 -50.468341 
L 178.013515 -50.468341 
L 178.481047 -51.304391 
L 178.94858 -51.304391 
L 179.416112 -51.304391 
L 179.883644 -51.304391 
L 180.351177 -51.304391 
L 180.818709 -51.304391 
L 181.286242 -51.304391 
L 181.753774 -51.304391 
L 182.221307 -51.321 
L 182.688839 -51.321 
L 183.156372 -51.321 
L 183.623904 -51.321 
L 184.091437 -51.321 
L 184.558969 -51.321 
L 185.026502 -51.321 
L 185.494034 -51.321117 
L 185.961567 -51.321117 
L 186.429099 -51.321117 
L 186.896631 -51.321117 
L 187.364164 -51.321117 
L 187.831696 -51.321117 
L 188.299229 -51.321117 
L 188.766761 -51.715913 
L 189.234294 -51.715913 
L 189.701826 -51.715913 
L 190.169359 -51.715913 
L 190.636891 -51.715913 
L 191.104424 -51.715913 
L 191.571956 -51.715913 
L 192.039489 -54.267772 
L 192.507021 -54.267772 
L 192.974554 -54.267772 
L 193.442086 -54.267772 
L 193.909619 -54.267772 
L 194.377151 -54.267772 
L 194.844683 -54.267772 
L 195.312216 -54.493442 
L 195.779748 -54.493442 
L 196.247281 -54.510336 
L 196.714813 -54.510336 
L 197.182346 -54.510336 
L 197.649878 -54.510336 
L 198.117411 -54.510336 
L 198.584943 -54.510336 
L 199.052476 -54.510336 
L 199.520008 -55.470781 
L 199.987541 -55.470781 
L 200.455073 -55.470781 
L 200.922606 -55.470781 
L 201.390138 -55.470781 
L 201.85767 -55.470781 
L 202.325203 -55.470781 
L 202.792735 -63.822925 
L 203.260268 -63.822925 
L 203.7278 -63.993494 
L 204.195333 -63.993494 
L 204.662865 -65.925552 
L 205.130398 -65.925552 
L 205.59793 -66.054106 
L 206.065463 -66.054106 
L 206.532995 -66.054106 
L 207.000528 -66.054106 
L 207.46806 -66.054106 
L 207.935593 -66.054106 
L 208.403125 -66.054106 
L 208.870657 -66.166091 
L 209.33819 -66.166091 
L 209.805722 -67.712906 
L 210.273255 -67.712906 
L 210.740787 -67.712906 
L 211.20832 -67.712906 
L 211.675852 -67.712906 
L 212.143385 -67.712906 
L 212.610917 -67.712906 
L 213.07845 -68.40231 
L 213.545982 -68.40231 
L 214.013515 -68.40231 
L 214.481047 -68.40231 
L 214.94858 -68.40231 
L 215.416112 -68.40231 
L 215.883644 -68.40231 
L 216.351177 -68.403309 
L 216.818709 -68.403309 
L 217.286242 -68.403398 
L 217.753774 -68.403398 
L 218.221307 -68.655125 
L 218.688839 -68.953272 
L 219.156372 -68.953272 
L 219.623904 -68.953272 
L 220.091437 -68.953272 
L 220.558969 -68.953272 
L 221.026502 -68.953272 
L 221.494034 -68.953272 
L 221.961567 -68.953272 
L 222.429099 -73.793541 
L 222.896631 -73.793541 
L 223.364164 -73.793541 
L 223.831696 -73.793541 
L 224.299229 -73.793541 
L 224.766761 -73.793541 
L 225.234294 -73.793541 
L 225.701826 -73.794093 
L 226.169359 -73.794093 
L 226.636891 -73.794093 
L 227.104424 -73.794093 
L 227.571956 -73.794093 
L 228.039489 -73.794093 
L 228.507021 -73.794093 
L 228.974554 -74.277428 
L 229.442086 -74.277428 
L 229.909619 -74.277428 
L 230.377151 -74.277428 
L 230.844683 -74.277428 
L 231.312216 -74.277428 
L 231.779748 -74.277428 
L 232.247281 -74.277811 
L 232.714813 -91.71209 
L 233.182346 -91.71209 
L 233.649878 -91.71209 
L 234.117411 -91.71209 
L 234.584943 -91.71209 
L 235.052476 -91.71209 
L 235.520008 -91.71209 
L 235.987541 -93.402987 
L 236.455073 -93.402987 
L 236.922606 -93.402987 
L 237.390138 -93.402987 
L 237.85767 -93.402987 
L 238.325203 -93.402987 
L 238.792735 -93.402987 
L 239.260268 -93.403503 
L 239.7278 -101.910276 
L 240.195333 -101.910276 
L 240.662865 -101.910276 
L 241.130398 -101.910276 
L 241.59793 -101.910276 
L 242.065463 -101.910276 
L 242.532995 -101.910276 
L 243.000528 -103.021938 
L 243.46806 -103.021938 
L 243.935593 -103.021938 
L 244.403125 -103.021938 
L 244.870657 -103.021938 
L 245.33819 -103.021938 
L 245.805722 -103.021938 
L 246.273255 -103.038293 
L 246.740787 -105.499346 
L 247.20832 -105.499346 
L 247.675852 -105.499346 
L 248.143385 -105.499387 
L 248.610917 -105.70315 
L 249.07845 -105.70315 
L 249.545982 -106.207061 
L 250.013515 -106.207061 
L 250.481047 -106.207061 
L 250.94858 -106.207061 
L 251.416112 -106.207061 
L 251.883644 -106.207061 
L 252.351177 -106.207061 
L 252.818709 -108.839237 
L 253.286242 -108.839237 
L 253.753774 -110.311091 
L 254.221307 -110.311091 
L 254.688839 -110.311091 
L 255.156372 -110.311091 
L 255.623904 -110.311091 
L 256.091437 -110.311091 
L 256.558969 -110.311091 
L 257.026502 -111.13549 
L 257.494034 -111.13549 
L 257.961567 -117.588701 
L 258.429099 -117.588701 
L 258.896631 -117.588701 
L 259.364164 -117.588701 
L 259.831696 -117.588701 
L 260.299229 -117.588701 
L 260.766761 -117.588701 
L 261.234294 -117.58896 
L 261.701826 -117.58896 
L 262.169359 -117.58896 
L 262.636891 -117.58896 
L 263.104424 -117.58896 
L 263.571956 -117.58896 
L 264.039489 -117.58896 
L 264.507021 -117.866379 
L 264.974554 -117.866379 
L 265.442086 -117.866379 
L 265.909619 -117.866379 
L 266.377151 -117.866379 
L 266.844683 -117.866379 
L 267.312216 -117.866379 
L 267.779748 -117.876208 
L 268.247281 -117.876208 
L 268.714813 -117.876208 
L 269.182346 -117.876208 
L 269.649878 -117.876208 
L 270.117411 -117.876208 
L 270.584943 -117.876208 
L 271.052476 -122.104772 
L 271.520008 -122.104772 
L 271.987541 -122.104828 
L 272.455073 -122.106864 
L 272.922606 -122.106864 
L 273.390138 -122.106864 
L 273.85767 -122.106864 
L 274.325203 -122.106864 
L 274.792735 -122.106864 
L 275.260268 -122.106864 
L 275.7278 -130.381759 
L 276.195333 -130.381759 
L 276.662865 -137.052229 
L 277.130398 -137.052229 
L 277.59793 -137.052229 
L 278.065463 -137.052229 
L 278.532995 -137.052229 
L 279.000528 -137.052229 
L 279.46806 -137.052229 
L 279.935593 -138.017512 
L 280.403125 -138.017512 
L 280.870657 -138.018291 
L 281.33819 -138.018291 
L 281.805722 -138.018291 
L 282.273255 -138.018291 
L 282.740787 -138.018291 
L 283.20832 -138.018291 
L 283.675852 -138.018291 
L 284.143385 -140.891879 
L 284.610917 -140.891879 
L 285.07845 -140.891879 
L 285.545982 -140.891879 
L 286.013515 -140.891879 
L 286.481047 -140.891879 
L 286.94858 -140.891879 
L 287.416112 -150.087029 
L 287.883644 -150.087029 
L 288.351177 -154.527647 
L 288.818709 -154.527647 
L 289.286242 -154.527647 
L 289.753774 -154.527647 
L 290.221307 -154.527647 
L 290.688839 -154.527647 
L 291.156372 -154.527647 
L 291.623904 -158.993166 
L 292.091437 -158.993166 
L 292.558969 -158.993166 
L 293.026502 -158.993166 
L 293.494034 -158.993166 
L 293.961567 -158.993166 
L 294.429099 -158.993166 
L 294.896631 -159.419067 
L 295.364164 -159.420003 
L 295.831696 -160.951606 
L 296.299229 -160.951606 
L 296.766761 -162.514193 
L 297.234294 -162.514193 
L 297.701826 -162.514193 
L 298.169359 -162.514193 
L 298.636891 -162.514193 
L 299.104424 -162.514193 
L 299.571956 -162.514193 
L 300.039489 -163.306992 
L 300.507021 -163.306992 
L 300.974554 -176.913135 
L 301.442086 -176.913135 
L 301.909619 -176.913135 
L 302.377151 -176.913135 
L 302.844683 -176.913135 
L 303.312216 -176.913135 
L 303.779748 -176.913135 
L 304.247281 -176.913953 
L 304.714813 -176.913953 
L 305.182346 -176.913953 
L 305.649878 -176.913953 
L 306.117411 -176.913953 
L 306.584943 -176.913953 
L 307.052476 -176.913953 
L 307.520008 -180.765155 
L 307.987541 -180.765155 
L 308.455073 -180.765155 
L 308.922606 -180.765155 
L 309.390138 -180.765155 
L 309.85767 -180.765155 
L 310.325203 -180.765155 
L 310.792735 -180.999889 
L 311.260268 -188.256363 
L 311.7278 -188.256363 
L 312.195333 -188.256363 
L 312.662865 -188.256363 
L 313.130398 -188.256363 
L 313.59793 -188.256363 
L 314.065463 -188.256363 
L 314.532995 -188.774112 
L 315.000528 -191.598167 
L 315.46806 -191.598167 
L 315.935593 -191.598167 
L 316.403125 -191.598167 
L 316.870657 -191.598167 
L 317.33819 -191.598167 
L 317.805722 -191.598167 
L 318.273255 -195.524572 
L 318.740787 -195.524572 
L 319.20832 -195.524572 
L 319.675852 -195.524572 
L 320.143385 -195.524572 
L 320.610917 -195.524572 
L 321.07845 -195.524572 
L 321.545982 -195.5892 
L 322.013515 -206.691444 
L 322.481047 -206.691444 
L 322.94858 -212.788896 
L 323.416112 -212.788896 
L 323.883644 -212.788896 
L 324.351177 -212.788896 
L 324.818709 -212.788896 
L 325.286242 -212.788896 
L 325.753774 -212.788896 
L 326.221307 -213.782335 
L 326.688839 -213.782335 
L 327.156372 -213.782335 
L 327.623904 -213.782335 
L 328.091437 -213.782335 
L 328.558969 -213.782335 
L 329.026502 -213.782335 
L 329.494034 -213.831672 
L 329.961567 -218.247937 
L 330.429099 -218.247937 
L 330.896631 -218.247937 
L 331.364164 -218.247937 
L 331.831696 -218.247937 
L 332.299229 -218.247937 
L 332.766761 -218.247937 
L 333.234294 -218.24948 
L 333.701826 -218.24948 
L 334.169359 -222.295018 
L 334.636891 -222.295018 
L 335.104424 -224.233176 
L 335.571956 -224.233176 
L 336.039489 -224.233176 
L 336.507021 -224.233176 
L 336.974554 -224.233176 
L 337.442086 -224.233176 
L 337.909619 -224.233176 
L 338.377151 -226.439663 
L 338.844683 -226.439663 
L 339.312216 -226.439663 
L 339.779748 -226.439663 
L 340.247281 -226.439663 
L 340.714813 -226.439663 
L 341.182346 -226.439663 
L 341.649878 -228.436429 
L 342.117411 -228.436429 
L 342.584943 -228.458125 
L 342.584943 -228.458125 
L 342.584943 -228.458125 
L 342.117411 -228.458125 
L 341.649878 -225.63618 
L 341.182346 -225.63618 
L 340.714813 -225.63618 
L 340.247281 -225.63618 
L 339.779748 -225.63618 
L 339.312216 -225.63618 
L 338.844683 -225.63618 
L 338.377151 -223.697101 
L 337.909619 -214.513392 
L 337.442086 -214.513392 
L 336.974554 -214.513392 
L 336.507021 -214.513392 
L 336.039489 -214.513392 
L 335.571956 -214.513392 
L 335.104424 -214.513392 
L 334.636891 -214.513018 
L 334.169359 -214.513018 
L 333.701826 -214.513018 
L 333.234294 -214.513018 
L 332.766761 -214.513018 
L 332.299229 -214.513018 
L 331.831696 -214.513018 
L 331.364164 -214.513018 
L 330.896631 -212.30267 
L 330.429099 -212.30267 
L 329.961567 -211.028447 
L 329.494034 -201.041202 
L 329.026502 -201.041202 
L 328.558969 -201.041202 
L 328.091437 -201.041202 
L 327.623904 -201.041202 
L 327.156372 -201.041202 
L 326.688839 -201.041202 
L 326.221307 -197.792054 
L 325.753774 -197.792054 
L 325.286242 -197.792054 
L 324.818709 -197.792054 
L 324.351177 -197.792054 
L 323.883644 -197.792054 
L 323.416112 -197.792054 
L 322.94858 -191.52541 
L 322.481047 -191.52541 
L 322.013515 -191.52541 
L 321.545982 -191.52541 
L 321.07845 -191.52541 
L 320.610917 -191.52541 
L 320.143385 -191.52541 
L 319.675852 -180.954176 
L 319.20832 -180.891462 
L 318.740787 -180.891462 
L 318.273255 -180.891462 
L 317.805722 -180.891462 
L 317.33819 -180.891462 
L 316.870657 -180.891462 
L 316.403125 -180.891462 
L 315.935593 -176.935188 
L 315.46806 -176.935188 
L 315.000528 -176.935188 
L 314.532995 -176.935188 
L 314.065463 -176.935188 
L 313.59793 -176.935188 
L 313.130398 -176.935188 
L 312.662865 -173.980683 
L 312.195333 -173.415493 
L 311.7278 -173.415493 
L 311.260268 -153.414486 
L 310.792735 -153.414486 
L 310.325203 -153.414486 
L 309.85767 -153.414486 
L 309.390138 -153.414486 
L 308.922606 -153.414486 
L 308.455073 -153.414486 
L 307.987541 -151.262803 
L 307.520008 -151.262803 
L 307.052476 -151.262803 
L 306.584943 -151.262803 
L 306.117411 -151.262803 
L 305.649878 -151.262803 
L 305.182346 -151.262803 
L 304.714813 -147.421444 
L 304.247281 -147.421444 
L 303.779748 -147.421444 
L 303.312216 -147.421444 
L 302.844683 -147.421444 
L 302.377151 -147.421444 
L 301.909619 -147.421444 
L 301.442086 -142.475895 
L 300.974554 -142.475895 
L 300.507021 -133.25374 
L 300.039489 -133.25374 
L 299.571956 -132.515634 
L 299.104424 -132.515634 
L 298.636891 -132.515634 
L 298.169359 -132.515634 
L 297.701826 -132.515634 
L 297.234294 -132.515634 
L 296.766761 -132.515634 
L 296.299229 -129.337978 
L 295.831696 -129.337978 
L 295.364164 -129.337978 
L 294.896631 -129.337978 
L 294.429099 -129.337978 
L 293.961567 -129.337978 
L 293.494034 -129.337978 
L 293.026502 -127.840396 
L 292.558969 -127.839458 
L 292.091437 -127.839458 
L 291.623904 -127.839458 
L 291.156372 -127.839458 
L 290.688839 -127.839458 
L 290.221307 -127.839458 
L 289.753774 -127.839458 
L 289.286242 -114.709375 
L 288.818709 -114.709375 
L 288.351177 -114.709375 
L 287.883644 -114.709375 
L 287.416112 -114.709375 
L 286.94858 -114.709375 
L 286.481047 -114.709375 
L 286.013515 -110.289473 
L 285.545982 -110.289473 
L 285.07845 -110.289473 
L 284.610917 -110.289473 
L 284.143385 -110.289473 
L 283.675852 -110.289473 
L 283.20832 -110.289473 
L 282.740787 -108.942106 
L 282.273255 -108.942106 
L 281.805722 -108.942106 
L 281.33819 -108.942106 
L 280.870657 -108.942106 
L 280.403125 -108.942106 
L 279.935593 -108.942106 
L 279.46806 -93.626994 
L 279.000528 -93.626994 
L 278.532995 -93.626994 
L 278.065463 -93.626994 
L 277.59793 -93.626994 
L 277.130398 -93.626994 
L 276.662865 -93.626994 
L 276.195333 -93.623972 
L 275.7278 -93.623972 
L 275.260268 -93.623972 
L 274.792735 -93.623972 
L 274.325203 -93.623972 
L 273.85767 -93.623972 
L 273.390138 -93.623972 
L 272.922606 -89.134252 
L 272.455073 -89.134029 
L 271.987541 -88.924255 
L 271.520008 -88.924255 
L 271.052476 -88.808725 
L 270.584943 -88.808725 
L 270.117411 -88.808725 
L 269.649878 -88.808725 
L 269.182346 -88.808725 
L 268.714813 -88.808725 
L 268.247281 -88.808725 
L 267.779748 -88.803329 
L 267.312216 -88.803329 
L 266.844683 -84.645503 
L 266.377151 -84.645503 
L 265.909619 -84.645503 
L 265.442086 -84.645503 
L 264.974554 -84.645503 
L 264.507021 -84.645503 
L 264.039489 -84.645503 
L 263.571956 -84.645503 
L 263.104424 -84.642976 
L 262.636891 -84.642976 
L 262.169359 -84.642976 
L 261.701826 -84.642976 
L 261.234294 -84.642976 
L 260.766761 -84.642976 
L 260.299229 -84.642976 
L 259.831696 -83.560497 
L 259.364164 -83.560497 
L 258.896631 -82.483442 
L 258.429099 -82.483442 
L 257.961567 -82.483442 
L 257.494034 -82.483442 
L 257.026502 -82.483442 
L 256.558969 -82.483442 
L 256.091437 -82.483442 
L 255.623904 -81.273138 
L 255.156372 -81.273138 
L 254.688839 -81.273138 
L 254.221307 -81.273138 
L 253.753774 -81.273138 
L 253.286242 -81.273138 
L 252.818709 -81.273138 
L 252.351177 -70.177753 
L 251.883644 -70.101898 
L 251.416112 -70.101898 
L 250.94858 -70.101898 
L 250.481047 -70.101898 
L 250.013515 -70.101898 
L 249.545982 -70.101898 
L 249.07845 -70.101898 
L 248.610917 -69.833321 
L 248.143385 -69.833321 
L 247.675852 -69.833321 
L 247.20832 -69.833321 
L 246.740787 -69.833321 
L 246.273255 -69.833321 
L 245.805722 -69.833321 
L 245.33819 -69.82887 
L 244.870657 -69.828258 
L 244.403125 -69.828258 
L 243.935593 -69.828185 
L 243.46806 -69.828185 
L 243.000528 -69.828185 
L 242.532995 -69.828185 
L 242.065463 -69.828185 
L 241.59793 -69.828185 
L 241.130398 -69.828185 
L 240.662865 -69.368067 
L 240.195333 -69.368067 
L 239.7278 -68.995169 
L 239.260268 -68.995169 
L 238.792735 -68.995169 
L 238.325203 -68.995169 
L 237.85767 -68.995169 
L 237.390138 -68.995169 
L 236.922606 -68.995169 
L 236.455073 -65.567782 
L 235.987541 -65.567782 
L 235.520008 -65.567774 
L 235.052476 -65.567774 
L 234.584943 -63.529119 
L 234.117411 -63.529119 
L 233.649878 -63.529119 
L 233.182346 -63.529119 
L 232.714813 -63.529119 
L 232.247281 -63.529119 
L 231.779748 -63.529119 
L 231.312216 -62.505505 
L 230.844683 -62.504317 
L 230.377151 -62.504317 
L 229.909619 -62.504317 
L 229.442086 -62.504317 
L 228.974554 -62.504317 
L 228.507021 -62.504317 
L 228.039489 -62.504317 
L 227.571956 -60.017288 
L 227.104424 -60.017288 
L 226.636891 -60.017288 
L 226.169359 -60.017288 
L 225.701826 -60.017288 
L 225.234294 -60.017288 
L 224.766761 -60.017288 
L 224.299229 -57.731942 
L 223.831696 -57.731942 
L 223.364164 -57.731942 
L 222.896631 -57.731942 
L 222.429099 -57.731942 
L 221.961567 -57.731942 
L 221.494034 -57.731942 
L 221.026502 -56.637038 
L 220.558969 -56.637038 
L 220.091437 -55.845118 
L 219.623904 -55.845118 
L 219.156372 -47.645766 
L 218.688839 -47.645766 
L 218.221307 -47.645766 
L 217.753774 -47.645766 
L 217.286242 -47.645766 
L 216.818709 -47.645766 
L 216.351177 -47.645766 
L 215.883644 -47.645021 
L 215.416112 -47.645021 
L 214.94858 -46.59481 
L 214.481047 -46.59481 
L 214.013515 -46.59481 
L 213.545982 -46.59481 
L 213.07845 -46.59481 
L 212.610917 -46.59481 
L 212.143385 -46.59481 
L 211.675852 -46.591393 
L 211.20832 -46.591393 
L 210.740787 -46.590867 
L 210.273255 -46.590867 
L 209.805722 -46.590867 
L 209.33819 -46.590867 
L 208.870657 -46.590867 
L 208.403125 -46.590867 
L 207.935593 -46.590867 
L 207.46806 -44.426394 
L 207.000528 -44.426394 
L 206.532995 -44.426394 
L 206.065463 -44.426394 
L 205.59793 -44.426394 
L 205.130398 -44.426394 
L 204.662865 -44.426394 
L 204.195333 -44.029653 
L 203.7278 -44.029653 
L 203.260268 -44.029653 
L 202.792735 -44.029653 
L 202.325203 -44.029653 
L 201.85767 -44.029653 
L 201.390138 -44.029653 
L 200.922606 -43.779123 
L 200.455073 -43.779123 
L 199.987541 -43.779123 
L 199.520008 -43.779123 
L 199.052476 -43.779123 
L 198.584943 -43.779123 
L 198.117411 -43.779123 
L 197.649878 -41.667777 
L 197.182346 -41.667777 
L 196.714813 -41.29759 
L 196.247281 -41.29759 
L 195.779748 -41.296644 
L 195.312216 -41.296644 
L 194.844683 -41.296644 
L 194.377151 -41.296644 
L 193.909619 -41.296644 
L 193.442086 -41.296644 
L 192.974554 -41.296644 
L 192.507021 -41.286787 
L 192.039489 -41.286787 
L 191.571956 -40.907988 
L 191.104424 -40.907988 
L 190.636891 -40.907988 
L 190.169359 -40.907988 
L 189.701826 -40.907988 
L 189.234294 -40.907988 
L 188.766761 -40.907988 
L 188.299229 -40.907988 
L 187.831696 -40.907988 
L 187.364164 -40.80636 
L 186.896631 -40.80636 
L 186.429099 -40.80636 
L 185.961567 -40.80636 
L 185.494034 -40.80636 
L 185.026502 -40.80636 
L 184.558969 -40.80636 
L 184.091437 -40.303658 
L 183.623904 -40.069966 
L 183.156372 -40.069966 
L 182.688839 -39.983948 
L 182.221307 -39.983948 
L 181.753774 -39.983948 
L 181.286242 -39.983948 
L 180.818709 -39.983948 
L 180.351177 -39.983948 
L 179.883644 -39.983948 
L 179.416112 -39.509724 
L 178.94858 -39.509724 
L 178.481047 -39.509724 
L 178.013515 -39.509724 
L 177.545982 -39.509724 
L 177.07845 -39.509724 
L 176.610917 -39.509724 
L 176.143385 -38.041529 
L 175.675852 -38.041529 
L 175.20832 -38.041529 
L 174.740787 -38.041529 
L 174.273255 -38.041529 
L 173.805722 -38.041529 
L 173.33819 -38.041529 
L 172.870657 -37.800793 
L 172.403125 -37.800615 
L 171.935593 -37.800615 
L 171.46806 -37.800615 
L 171.000528 -37.800615 
L 170.532995 -37.800615 
L 170.065463 -37.800615 
L 169.59793 -37.800615 
L 169.130398 -37.67002 
L 168.662865 -37.67002 
L 168.195333 -37.67002 
L 167.7278 -37.67002 
L 167.260268 -37.67002 
L 166.792735 -37.67002 
L 166.325203 -37.67002 
L 165.85767 -37.669759 
L 165.390138 -37.669759 
L 164.922606 -37.669759 
L 164.455073 -37.669759 
L 163.987541 -37.669759 
L 163.520008 -37.669759 
L 163.052476 -37.669759 
L 162.584943 -37.66942 
L 162.117411 -37.66942 
L 161.649878 -37.62229 
L 161.182346 -37.62229 
L 160.714813 -37.62229 
L 160.247281 -37.62229 
L 159.779748 -37.62229 
L 159.312216 -37.62229 
L 158.844683 -37.62229 
L 158.377151 -37.618827 
L 157.909619 -37.618827 
L 157.442086 -37.618827 
L 156.974554 -37.618827 
L 156.507021 -37.618827 
L 156.039489 -37.618827 
L 155.571956 -37.618827 
L 155.104424 -37.350459 
L 154.636891 -37.350459 
L 154.169359 -37.348016 
L 153.701826 -37.348016 
L 153.234294 -37.348016 
L 152.766761 -37.348016 
L 152.299229 -37.348016 
L 151.831696 -37.348016 
L 151.364164 -37.348016 
L 150.896631 -37.343127 
L 150.429099 -37.343127 
L 149.961567 -37.343127 
L 149.494034 -37.343127 
L 149.026502 -37.343127 
L 148.558969 -37.343127 
L 148.091437 -37.343127 
L 147.623904 -36.780982 
L 147.156372 -36.780982 
L 146.688839 -36.668985 
L 146.221307 -36.668985 
L 145.753774 -36.668985 
L 145.286242 -36.668985 
L 144.818709 -36.668985 
L 144.351177 -36.668985 
L 143.883644 -36.668985 
L 143.416112 -36.339885 
L 142.94858 -36.339885 
L 142.481047 -36.339885 
L 142.013515 -36.339885 
L 141.545982 -36.339885 
L 141.07845 -36.339885 
L 140.610917 -36.339885 
L 140.143385 -35.280305 
L 139.675852 -35.171322 
L 139.20832 -35.171322 
L 138.740787 -35.171322 
L 138.273255 -35.171322 
L 137.805722 -35.171322 
L 137.33819 -35.171322 
L 136.870657 -35.171322 
L 136.403125 -34.836962 
L 135.935593 -34.836962 
L 135.46806 -34.762945 
L 135.000528 -34.762945 
L 134.532995 -34.762945 
L 134.065463 -34.762945 
L 133.59793 -34.762945 
L 133.130398 -34.762945 
L 132.662865 -34.762945 
L 132.195333 -34.052986 
L 131.7278 -34.052986 
L 131.260268 -34.04243 
L 130.792735 -34.04243 
L 130.325203 -34.04243 
L 129.85767 -34.04243 
L 129.390138 -34.04243 
L 128.922606 -34.04243 
L 128.455073 -34.04243 
L 127.987541 -33.21258 
L 127.520008 -33.21258 
L 127.052476 -33.21258 
L 126.584943 -33.21258 
L 126.117411 -33.21258 
L 125.649878 -33.21258 
L 125.182346 -33.21258 
L 124.714813 -33.084516 
L 124.247281 -33.084516 
L 123.779748 -33.084516 
L 123.312216 -33.083578 
L 122.844683 -33.083578 
L 122.377151 -33.083578 
L 121.909619 -33.083578 
L 121.442086 -33.083578 
L 120.974554 -33.083578 
L 120.507021 -33.083578 
L 120.039489 -33.077639 
L 119.571956 -32.241596 
L 119.104424 -32.241596 
L 118.636891 -32.241596 
L 118.169359 -32.241596 
L 117.701826 -32.241596 
L 117.234294 -32.241596 
L 116.766761 -32.241596 
L 116.299229 -31.664529 
L 115.831696 -31.664529 
L 115.364164 -31.664529 
L 114.896631 -31.664529 
L 114.429099 -31.664529 
L 113.961567 -31.664529 
L 113.494034 -31.664529 
L 113.026502 -31.563528 
L 112.558969 -31.563528 
L 112.091437 -31.563528 
L 111.623904 -31.563528 
L 111.156372 -31.563528 
L 110.688839 -31.563528 
L 110.221307 -31.563528 
L 109.753774 -31.505714 
L 109.286242 -31.505714 
L 108.818709 -31.505714 
L 108.351177 -31.505714 
L 107.883644 -31.505714 
L 107.416112 -31.505714 
L 106.94858 -31.505714 
L 106.481047 -31.206077 
L 106.013515 -31.206077 
L 105.545982 -31.206077 
L 105.07845 -31.206077 
L 104.610917 -31.206077 
L 104.143385 -31.206077 
L 103.675852 -31.206077 
L 103.20832 -31.202198 
L 102.740787 -31.202198 
L 102.273255 -31.202198 
L 101.805722 -31.202198 
L 101.33819 -31.202198 
L 100.870657 -31.202198 
L 100.403125 -31.202198 
L 99.935593 -31.167728 
L 99.46806 -31.165364 
L 99.000528 -31.165364 
L 98.532995 -31.165364 
L 98.065463 -31.165364 
L 97.59793 -31.165364 
L 97.130398 -31.165364 
L 96.662865 -31.165364 
L 96.195333 -31.164886 
L 95.7278 -31.164886 
L 95.260268 -30.700353 
L 94.792735 -30.696674 
L 94.325203 -30.696674 
L 93.85767 -30.696674 
L 93.390138 -30.696674 
L 92.922606 -30.696674 
L 92.455073 -30.696674 
L 91.987541 -30.696674 
L 91.520008 -30.665809 
L 91.052476 -30.665809 
L 90.584943 -30.665809 
L 90.117411 -30.665809 
L 89.649878 -30.665809 
L 89.182346 -30.665809 
L 88.714813 -30.665809 
L 88.247281 -30.543873 
L 87.779748 -30.543873 
L 87.312216 -30.543873 
L 86.844683 -30.543873 
L 86.377151 -30.543873 
L 85.909619 -30.543873 
L 85.442086 -30.543873 
L 84.974554 -29.615797 
L 84.507021 -29.615797 
L 84.039489 -29.615797 
L 83.571956 -29.615797 
L 83.104424 -29.615797 
L 82.636891 -29.615797 
L 82.169359 -29.615797 
L 81.701826 -29.615797 
L 81.234294 -28.341237 
L 80.766761 -28.23554 
L 80.299229 -28.23554 
L 79.831696 -28.23554 
L 79.364164 -28.23554 
L 78.896631 -28.23554 
L 78.429099 -28.23554 
L 77.961567 -28.23554 
L 77.494034 -28.227445 
L 77.026502 -28.227445 
L 76.558969 -28.156897 
L 76.091437 -28.156897 
L 75.623904 -28.156897 
L 75.156372 -28.156897 
L 74.688839 -28.156897 
L 74.221307 -28.156897 
L 73.753774 -28.156897 
L 73.286242 -28.051382 
L 72.818709 -28.051139 
L 72.351177 -28.051139 
L 71.883644 -28.051139 
L 71.416112 -28.051139 
L 70.94858 -28.051139 
L 70.481047 -28.051139 
L 70.013515 -28.051139 
L 69.545982 -28.046772 
L 69.07845 -28.046772 
L 68.610917 -27.613213 
L 68.143385 -27.613213 
L 67.675852 -27.613213 
L 67.20832 -27.613213 
L 66.740787 -27.613213 
L 66.273255 -27.613213 
L 65.805722 -27.613213 
L 65.33819 -27.610652 
L 64.870657 -27.610652 
L 64.403125 -27.610652 
L 63.935593 -27.610652 
L 63.46806 -27.610652 
L 63.000528 -27.610652 
L 62.532995 -27.610652 
L 62.065463 -27.601681 
L 61.59793 -27.601681 
L 61.130398 -27.601681 
L 60.662865 -27.601681 
L 60.195333 -27.601681 
L 59.7278 -27.601681 
L 59.260268 -27.601681 
L 58.792735 -26.980861 
L 58.325203 -26.980861 
L 57.85767 -26.964211 
L 57.390138 -26.964211 
L 56.922606 -26.964211 
L 56.455073 -26.964211 
L 55.987541 -26.964211 
L 55.520008 -26.964211 
L 55.052476 -26.964211 
L 54.584943 -26.866739 
L 54.117411 -26.866739 
L 53.649878 -26.866739 
L 53.182346 -26.866739 
L 52.714813 -26.866739 
L 52.247281 -26.866739 
L 51.779748 -26.866739 
L 51.312216 -26.864463 
L 50.844683 -26.863699 
L 50.377151 -26.863699 
L 49.909619 -26.863699 
L 49.442086 -26.863699 
L 48.974554 -26.863699 
L 48.507021 -26.863699 
L 48.039489 -26.863699 
L 47.571956 -26.860751 
L 47.104424 -26.860751 
L 46.636891 -26.860751 
L 46.169359 -26.860751 
L 45.701826 -26.860751 
L 45.234294 -26.860751 
L 44.766761 -26.860751 
L 44.299229 -26.859679 
L 43.831696 -26.859679 
L 43.364164 -26.859679 
L 42.896631 -26.859679 
L 42.429099 -26.859679 
L 41.961567 -26.859679 
L 41.494034 -26.859679 
L 41.026502 -26.858125 
L 40.558969 -26.858125 
L 40.091437 -26.858125 
L 39.623904 -26.858125 
L 39.156372 -26.858125 
L 38.688839 -26.858125 
L 38.221307 -26.858125 
z
" style="stroke: #808080; stroke-opacity: 0.6"/>
    </defs>
    <g clip-path="url(#pf7c7119a40)">
     <use xlink:href="#mb9858b0101" x="0" y="242.138125" style="fill: #808080; fill-opacity: 0.6; stroke: #808080; stroke-opacity: 0.6"/>
    </g>
   </g>
   <g id="line2d_128">
    <path d="M 38.221307 214.535566 
L 41.494034 214.456 
L 41.961567 213.850831 
L 48.039489 213.848734 
L 48.507021 213.055506 
L 51.312216 213.055506 
L 51.779748 212.860068 
L 53.182346 212.803522 
L 53.649878 212.237121 
L 54.584943 212.237113 
L 55.052476 211.99828 
L 58.325203 211.997408 
L 58.792735 211.859187 
L 59.260268 211.859187 
L 59.7278 211.5788 
L 62.532995 211.5788 
L 63.000528 211.340882 
L 65.805722 211.340882 
L 66.273255 211.136095 
L 69.07845 211.136095 
L 69.545982 210.680445 
L 72.351177 210.680445 
L 72.818709 210.543629 
L 75.623904 210.543629 
L 76.091437 210.348648 
L 78.896631 210.348648 
L 79.364164 209.201841 
L 82.169359 209.201841 
L 82.636891 209.079986 
L 85.442086 209.079986 
L 85.909619 207.179319 
L 88.714813 207.179319 
L 89.182346 206.853322 
L 91.987541 206.853322 
L 92.455073 205.537682 
L 93.85767 205.537561 
L 94.325203 205.323211 
L 97.130398 205.323211 
L 97.59793 204.694629 
L 100.870657 204.6735 
L 101.805722 204.561344 
L 104.143385 204.561344 
L 104.610917 204.342699 
L 107.416112 204.342699 
L 107.883644 204.218794 
L 109.286242 204.212782 
L 109.753774 203.965599 
L 112.558969 203.965599 
L 113.026502 203.616291 
L 115.831696 203.616291 
L 116.299229 203.486322 
L 116.766761 203.486322 
L 117.234294 203.16952 
L 120.039489 203.16952 
L 120.507021 202.985455 
L 123.779748 202.96844 
L 124.247281 202.175117 
L 127.052476 202.175117 
L 127.520008 200.681627 
L 131.7278 200.634559 
L 132.195333 200.494451 
L 135.46806 200.492846 
L 135.935593 200.321248 
L 136.403125 200.321248 
L 136.870657 200.190999 
L 140.610917 200.190129 
L 141.07845 195.391533 
L 143.883644 195.391533 
L 144.351177 195.196727 
L 144.818709 195.196727 
L 145.286242 194.736456 
L 148.091437 194.736456 
L 148.558969 193.010699 
L 149.026502 193.010699 
L 149.494034 192.479095 
L 152.299229 192.479095 
L 152.766761 190.880219 
L 155.571956 190.880219 
L 156.039489 190.297326 
L 158.844683 190.297326 
L 159.312216 187.820926 
L 159.779748 187.820926 
L 160.247281 187.498137 
L 163.052476 187.498137 
L 163.520008 180.891725 
L 166.325203 180.891725 
L 166.792735 180.590355 
L 170.532995 180.530161 
L 171.000528 180.315242 
L 174.273255 180.222123 
L 174.740787 178.000653 
L 180.818709 177.961748 
L 181.286242 177.616502 
L 181.753774 177.616502 
L 182.221307 175.966616 
L 182.688839 175.966616 
L 183.156372 175.559099 
L 183.623904 169.61161 
L 186.429099 169.61161 
L 186.896631 169.156313 
L 189.701826 169.156313 
L 190.169359 168.406673 
L 193.909619 168.3057 
L 194.377151 167.756698 
L 197.182346 167.756698 
L 197.649878 167.307185 
L 200.922606 167.307185 
L 201.390138 166.631916 
L 204.195333 166.631916 
L 204.662865 166.015862 
L 207.46806 166.015862 
L 207.935593 164.423283 
L 208.403125 164.423283 
L 208.870657 163.074171 
L 209.33819 163.074171 
L 209.805722 159.71165 
L 210.273255 159.71165 
L 210.740787 151.126403 
L 213.545982 151.126403 
L 214.013515 149.895013 
L 216.818709 149.895013 
L 217.286242 149.231983 
L 220.558969 149.231982 
L 221.026502 148.55744 
L 221.494034 148.55744 
L 221.961567 134.658783 
L 224.766761 134.658783 
L 225.234294 134.075934 
L 225.701826 131.886345 
L 228.507021 131.886345 
L 228.974554 123.021917 
L 231.779748 123.021917 
L 232.247281 115.382372 
L 235.052476 115.382372 
L 235.520008 113.879523 
L 238.792735 113.879523 
L 239.260268 113.10522 
L 239.7278 113.10522 
L 240.195333 112.586566 
L 243.46806 112.586566 
L 243.935593 111.866161 
L 246.740787 111.866161 
L 247.20832 111.479559 
L 250.013515 111.479559 
L 250.481047 111.05029 
L 250.94858 77.057129 
L 253.753774 77.057129 
L 254.221307 76.555075 
L 257.026502 76.555075 
L 257.494034 75.546507 
L 257.961567 75.546507 
L 258.429099 74.434699 
L 261.234294 74.434699 
L 261.701826 72.791693 
L 262.169359 72.791693 
L 262.636891 67.399727 
L 265.442086 67.399727 
L 265.909619 67.204282 
L 266.377151 58.342688 
L 269.182346 58.342688 
L 269.649878 56.998787 
L 272.455073 56.998787 
L 272.922606 54.44475 
L 275.7278 54.44475 
L 276.195333 53.478825 
L 279.000528 53.478825 
L 279.46806 52.527645 
L 279.935593 52.527645 
L 280.403125 51.445831 
L 280.870657 51.445831 
L 281.33819 49.640401 
L 284.143385 49.640401 
L 284.610917 48.447697 
L 287.416112 48.447697 
L 287.883644 45.502137 
L 290.688839 45.502137 
L 291.156372 45.065363 
L 291.623904 44.899785 
L 294.429099 44.899785 
L 294.896631 38.584205 
L 297.701826 38.584205 
L 298.169359 37.227398 
L 298.636891 37.227398 
L 299.104424 36.802696 
L 299.571956 36.802696 
L 300.039489 35.938433 
L 303.779748 35.924639 
L 304.247281 33.694957 
L 307.052476 33.694957 
L 307.520008 31.506779 
L 310.325203 31.506779 
L 310.792735 29.315001 
L 313.59793 29.315001 
L 314.065463 24.450174 
L 316.870657 24.450174 
L 317.33819 22.267039 
L 320.143385 22.267039 
L 320.610917 20.329853 
L 326.688839 20.254981 
L 327.156372 15.936462 
L 333.234294 15.92103 
L 333.701826 13.700132 
L 342.584943 13.68 
L 342.584943 13.68 
" clip-path="url(#pf7c7119a40)" style="fill: none; stroke: #ff0000; stroke-linecap: square"/>
   </g>
   <g id="line2d_129">
    <path d="M 38.221307 215.27997 
L 43.831696 215.274632 
L 44.299229 213.909331 
L 50.377151 213.905024 
L 50.844683 213.425605 
L 55.052476 213.422812 
L 55.520008 212.327363 
L 58.792735 212.323647 
L 59.7278 212.210491 
L 62.065463 212.210491 
L 62.532995 211.495694 
L 70.013515 211.396685 
L 70.481047 211.009523 
L 73.286242 211.009523 
L 73.753774 210.661903 
L 76.558969 210.661903 
L 77.026502 210.399789 
L 79.831696 210.399789 
L 80.299229 209.452856 
L 80.766761 209.452856 
L 81.234294 209.156688 
L 81.701826 209.156688 
L 82.169359 208.178182 
L 83.571956 208.17676 
L 84.039489 207.775947 
L 84.507021 207.775947 
L 84.974554 207.368645 
L 85.442086 207.368645 
L 85.909619 201.167069 
L 89.182346 201.166507 
L 89.649878 200.711148 
L 100.403125 200.687718 
L 100.870657 200.572321 
L 103.675852 200.572321 
L 104.143385 199.115499 
L 104.610917 198.57706 
L 107.883644 198.526797 
L 108.351177 198.144263 
L 115.364164 198.078297 
L 115.831696 197.905355 
L 118.636891 197.905355 
L 119.104424 196.482395 
L 126.117411 196.477804 
L 126.584943 195.347666 
L 130.325203 195.259815 
L 130.792735 195.137048 
L 133.59793 195.137048 
L 134.065463 194.566129 
L 136.870657 194.566129 
L 137.33819 194.442543 
L 137.805722 192.715062 
L 138.273255 192.715062 
L 138.740787 192.570479 
L 145.286242 192.560821 
L 145.753774 192.302219 
L 152.766761 192.230314 
L 153.234294 191.810686 
L 154.169359 191.783201 
L 154.636891 191.661587 
L 157.442086 191.661587 
L 157.909619 190.517386 
L 161.649878 190.517359 
L 162.117411 190.295974 
L 164.922606 190.295974 
L 165.390138 190.066572 
L 168.195333 190.066572 
L 168.662865 187.520947 
L 171.46806 187.520947 
L 171.935593 184.986893 
L 174.740787 184.986893 
L 175.20832 183.745514 
L 178.013515 183.745514 
L 178.481047 183.215764 
L 181.286242 183.215764 
L 181.753774 176.469879 
L 184.558969 176.469879 
L 185.026502 174.666158 
L 191.104424 174.66269 
L 191.571956 173.583921 
L 194.377151 173.583921 
L 194.844683 172.36709 
L 197.649878 172.36709 
L 198.117411 167.516054 
L 200.922606 167.516054 
L 201.390138 167.28317 
L 208.403125 167.269829 
L 208.870657 166.579323 
L 211.675852 166.579323 
L 212.143385 162.858689 
L 214.94858 162.858689 
L 215.416112 155.41261 
L 218.221307 155.41261 
L 218.688839 155.195728 
L 219.156372 155.195728 
L 219.623904 154.981907 
L 220.091437 154.45051 
L 223.364164 154.45051 
L 223.831696 154.102531 
L 226.636891 154.102531 
L 227.104424 152.931652 
L 227.571956 152.931652 
L 228.039489 152.135933 
L 230.844683 152.135933 
L 231.312216 150.458259 
L 234.117411 150.458259 
L 234.584943 148.974909 
L 237.390138 148.974909 
L 237.85767 148.406445 
L 240.662865 148.406445 
L 241.59793 148.26744 
L 242.065463 147.625218 
L 244.870657 147.625218 
L 245.33819 141.271317 
L 248.143385 141.271317 
L 248.610917 140.69118 
L 249.07845 140.69118 
L 249.545982 140.412882 
L 265.909619 140.38733 
L 266.377151 133.198235 
L 270.117411 133.11216 
L 270.584943 132.032471 
L 273.390138 132.032471 
L 273.85767 131.589101 
L 274.325203 131.589101 
L 274.792735 131.032897 
L 275.260268 131.032897 
L 275.7278 130.396649 
L 278.532995 130.396649 
L 279.000528 130.186772 
L 281.805722 130.186772 
L 282.273255 129.486135 
L 282.740787 129.486135 
L 283.20832 125.885779 
L 286.013515 125.885779 
L 286.481047 124.983466 
L 289.286242 124.983466 
L 289.753774 118.824868 
L 292.558969 118.824868 
L 293.026502 118.294407 
L 295.831696 118.294407 
L 296.299229 116.78481 
L 299.104424 116.78481 
L 299.571956 115.805538 
L 302.377151 115.805538 
L 302.844683 108.715888 
L 303.312216 108.715888 
L 303.779748 106.646227 
L 305.182346 106.645016 
L 305.649878 101.785516 
L 308.455073 101.785516 
L 308.922606 100.032694 
L 313.130398 100.030928 
L 313.59793 97.676672 
L 319.675852 97.661973 
L 320.143385 96.405584 
L 323.883644 96.404255 
L 324.351177 93.058449 
L 327.623904 93.058449 
L 328.091437 64.578635 
L 330.896631 64.578635 
L 331.364164 63.53695 
L 331.831696 63.53695 
L 332.299229 47.71926 
L 335.104424 47.71926 
L 335.571956 41.515352 
L 338.377151 41.515352 
L 338.844683 26.519592 
L 341.649878 26.519592 
L 342.117411 13.68 
L 342.584943 13.68 
L 342.584943 13.68 
" clip-path="url(#pf7c7119a40)" style="fill: none; stroke-dasharray: 6.4,1.6,1,1.6; stroke-dashoffset: 0; stroke: #000000"/>
   </g>
   <g id="patch_3">
    <path d="M 23.003125 225.36 
L 23.003125 3.6 
" style="fill: none; stroke: #000000; stroke-width: 0.5; stroke-linejoin: miter; stroke-linecap: square"/>
   </g>
   <g id="patch_4">
    <path d="M 357.803125 225.36 
L 357.803125 3.6 
" style="fill: none; stroke: #000000; stroke-width: 0.5; stroke-linejoin: miter; stroke-linecap: square"/>
   </g>
   <g id="patch_5">
    <path d="M 23.003125 225.36 
L 357.803125 225.36 
" style="fill: none; stroke: #000000; stroke-width: 0.5; stroke-linejoin: miter; stroke-linecap: square"/>
   </g>
   <g id="patch_6">
    <path d="M 23.003125 3.6 
L 357.803125 3.6 
" style="fill: none; stroke: #000000; stroke-width: 0.5; stroke-linejoin: miter; stroke-linecap: square"/>
   </g>
   <g id="legend_1">
    <g id="patch_7">
     <path d="M 30.003125 55.776562 
L 122.273438 55.776562 
Q 124.273438 55.776562 124.273438 53.776562 
L 124.273438 10.6 
Q 124.273438 8.6 122.273438 8.6 
L 30.003125 8.6 
Q 28.003125 8.6 28.003125 10.6 
L 28.003125 53.776562 
Q 28.003125 55.776562 30.003125 55.776562 
z
" style="fill: #ffffff; stroke: #cccccc; stroke-linejoin: miter"/>
    </g>
    <g id="patch_8">
     <path d="M 32.003125 20.198437 
L 52.003125 20.198437 
L 52.003125 13.198437 
L 32.003125 13.198437 
z
" style="fill: #808080; fill-opacity: 0.6; stroke: #808080; stroke-opacity: 0.6; stroke-linejoin: miter"/>
    </g>
    <g id="text_14">
     <!-- GA strategy -->
     <g transform="translate(60.003125 20.198437)scale(0.1 -0.1)">
      <defs>
       <path id="DejaVuSerif-47" d="M 4097 3272 
Q 3988 3856 3641 4136 
Q 3294 4416 2675 4416 
Q 1869 4416 1472 3897 
Q 1075 3378 1075 2328 
Q 1075 1300 1484 772 
Q 1894 244 2688 244 
Q 3041 244 3362 331 
Q 3684 419 3975 594 
L 3975 1797 
L 3097 1797 
L 3097 2131 
L 4609 2131 
L 4609 391 
Q 4194 150 3714 29 
Q 3234 -91 2688 -91 
Q 1631 -91 995 570 
Q 359 1231 359 2328 
Q 359 3434 996 4092 
Q 1634 4750 2713 4750 
Q 3113 4750 3539 4658 
Q 3966 4566 4447 4378 
L 4447 3272 
L 4097 3272 
z
" transform="scale(0.015625)"/>
       <path id="DejaVuSerif-41" d="M 1281 1691 
L 2994 1691 
L 2138 3909 
L 1281 1691 
z
M -38 0 
L -38 331 
L 372 331 
L 2034 4666 
L 2559 4666 
L 4225 331 
L 4684 331 
L 4684 0 
L 2988 0 
L 2988 331 
L 3506 331 
L 3116 1356 
L 1153 1356 
L 763 331 
L 1275 331 
L 1275 0 
L -38 0 
z
" transform="scale(0.015625)"/>
       <path id="DejaVuSerif-20" transform="scale(0.015625)"/>
       <path id="DejaVuSerif-73" d="M 359 184 
L 359 959 
L 691 959 
Q 703 588 923 403 
Q 1144 219 1575 219 
Q 1963 219 2166 364 
Q 2369 509 2369 788 
Q 2369 1006 2220 1140 
Q 2072 1275 1594 1428 
L 1178 1569 
Q 750 1706 558 1912 
Q 366 2119 366 2438 
Q 366 2894 700 3153 
Q 1034 3413 1625 3413 
Q 1888 3413 2178 3344 
Q 2469 3275 2778 3144 
L 2778 2419 
L 2447 2419 
Q 2434 2741 2221 2922 
Q 2009 3103 1644 3103 
Q 1281 3103 1095 2975 
Q 909 2847 909 2591 
Q 909 2381 1050 2254 
Q 1191 2128 1613 1997 
L 2069 1856 
Q 2541 1709 2748 1489 
Q 2956 1269 2956 922 
Q 2956 450 2595 179 
Q 2234 -91 1600 -91 
Q 1278 -91 972 -22 
Q 666 47 359 184 
z
" transform="scale(0.015625)"/>
       <path id="DejaVuSerif-74" d="M 691 2988 
L 184 2988 
L 184 3322 
L 691 3322 
L 691 4353 
L 1269 4353 
L 1269 3322 
L 2350 3322 
L 2350 2988 
L 1269 2988 
L 1269 878 
Q 1269 456 1350 337 
Q 1431 219 1650 219 
Q 1875 219 1978 351 
Q 2081 484 2088 781 
L 2522 781 
Q 2497 328 2275 118 
Q 2053 -91 1600 -91 
Q 1103 -91 897 129 
Q 691 350 691 878 
L 691 2988 
z
" transform="scale(0.015625)"/>
       <path id="DejaVuSerif-72" d="M 3059 3328 
L 3059 2497 
L 2728 2497 
Q 2713 2744 2591 2866 
Q 2469 2988 2234 2988 
Q 1809 2988 1582 2694 
Q 1356 2400 1356 1850 
L 1356 331 
L 2022 331 
L 2022 0 
L 263 0 
L 263 331 
L 781 331 
L 781 2994 
L 231 2994 
L 231 3322 
L 1356 3322 
L 1356 2731 
Q 1525 3078 1790 3245 
Q 2056 3413 2438 3413 
Q 2578 3413 2733 3391 
Q 2888 3369 3059 3328 
z
" transform="scale(0.015625)"/>
       <path id="DejaVuSerif-61" d="M 2547 1044 
L 2547 1747 
L 1806 1747 
Q 1378 1747 1168 1562 
Q 959 1378 959 997 
Q 959 650 1171 447 
Q 1384 244 1747 244 
Q 2106 244 2326 466 
Q 2547 688 2547 1044 
z
M 3122 2075 
L 3122 331 
L 3634 331 
L 3634 0 
L 2547 0 
L 2547 359 
Q 2356 128 2106 18 
Q 1856 -91 1522 -91 
Q 969 -91 644 203 
Q 319 497 319 997 
Q 319 1513 691 1797 
Q 1063 2081 1741 2081 
L 2547 2081 
L 2547 2309 
Q 2547 2688 2317 2895 
Q 2088 3103 1672 3103 
Q 1328 3103 1125 2947 
Q 922 2791 872 2484 
L 575 2484 
L 575 3156 
Q 875 3284 1158 3348 
Q 1441 3413 1709 3413 
Q 2400 3413 2761 3070 
Q 3122 2728 3122 2075 
z
" transform="scale(0.015625)"/>
       <path id="DejaVuSerif-65" d="M 3469 1600 
L 991 1600 
L 991 1575 
Q 991 903 1244 561 
Q 1497 219 1991 219 
Q 2369 219 2611 417 
Q 2853 616 2950 1006 
L 3413 1006 
Q 3275 459 2904 184 
Q 2534 -91 1931 -91 
Q 1203 -91 761 389 
Q 319 869 319 1663 
Q 319 2450 753 2931 
Q 1188 3413 1894 3413 
Q 2647 3413 3050 2948 
Q 3453 2484 3469 1600 
z
M 2791 1931 
Q 2772 2513 2545 2808 
Q 2319 3103 1894 3103 
Q 1497 3103 1269 2806 
Q 1041 2509 991 1931 
L 2791 1931 
z
" transform="scale(0.015625)"/>
       <path id="DejaVuSerif-67" d="M 3359 2988 
L 3359 72 
Q 3359 -644 2965 -1033 
Q 2572 -1422 1844 -1422 
Q 1516 -1422 1216 -1362 
Q 916 -1303 641 -1184 
L 641 -488 
L 941 -488 
Q 997 -813 1206 -963 
Q 1416 -1113 1806 -1113 
Q 2313 -1113 2548 -827 
Q 2784 -541 2784 72 
L 2784 519 
Q 2616 206 2355 57 
Q 2094 -91 1709 -91 
Q 1097 -91 708 395 
Q 319 881 319 1663 
Q 319 2444 706 2928 
Q 1094 3413 1709 3413 
Q 2094 3413 2355 3264 
Q 2616 3116 2784 2803 
L 2784 3322 
L 3909 3322 
L 3909 2988 
L 3359 2988 
z
M 2784 1825 
Q 2784 2422 2554 2737 
Q 2325 3053 1888 3053 
Q 1444 3053 1217 2703 
Q 991 2353 991 1663 
Q 991 975 1217 622 
Q 1444 269 1888 269 
Q 2325 269 2554 583 
Q 2784 897 2784 1497 
L 2784 1825 
z
" transform="scale(0.015625)"/>
       <path id="DejaVuSerif-79" d="M 1381 -609 
L 1600 -56 
L 359 2988 
L -19 2988 
L -19 3322 
L 1509 3322 
L 1509 2988 
L 978 2988 
L 1913 703 
L 2847 2988 
L 2350 2988 
L 2350 3322 
L 3597 3322 
L 3597 2988 
L 3225 2988 
L 1703 -750 
Q 1547 -1138 1356 -1280 
Q 1166 -1422 819 -1422 
Q 672 -1422 517 -1397 
Q 363 -1372 206 -1325 
L 206 -691 
L 500 -691 
Q 519 -903 608 -995 
Q 697 -1088 884 -1088 
Q 1056 -1088 1161 -992 
Q 1266 -897 1381 -609 
z
" transform="scale(0.015625)"/>
      </defs>
      <use xlink:href="#DejaVuSerif-47"/>
      <use xlink:href="#DejaVuSerif-41" x="79.882812"/>
      <use xlink:href="#DejaVuSerif-20" x="152.099609"/>
      <use xlink:href="#DejaVuSerif-73" x="183.886719"/>
      <use xlink:href="#DejaVuSerif-74" x="235.205078"/>
      <use xlink:href="#DejaVuSerif-72" x="275.390625"/>
      <use xlink:href="#DejaVuSerif-61" x="323.193359"/>
      <use xlink:href="#DejaVuSerif-74" x="382.8125"/>
      <use xlink:href="#DejaVuSerif-65" x="422.998047"/>
      <use xlink:href="#DejaVuSerif-67" x="482.177734"/>
      <use xlink:href="#DejaVuSerif-79" x="546.191406"/>
     </g>
    </g>
    <g id="line2d_130">
     <path d="M 32.003125 31.51875 
L 42.003125 31.51875 
L 52.003125 31.51875 
" style="fill: none; stroke: #ff0000; stroke-linecap: square"/>
    </g>
    <g id="text_15">
     <!-- GCN model -->
     <g transform="translate(60.003125 35.01875)scale(0.1 -0.1)">
      <defs>
       <path id="DejaVuSerif-43" d="M 4513 1234 
Q 4306 581 3820 245 
Q 3334 -91 2591 -91 
Q 2134 -91 1743 65 
Q 1353 222 1050 525 
Q 700 875 529 1320 
Q 359 1766 359 2328 
Q 359 3416 987 4083 
Q 1616 4750 2644 4750 
Q 3025 4750 3456 4650 
Q 3888 4550 4384 4347 
L 4384 3272 
L 4031 3272 
Q 3916 3859 3567 4137 
Q 3219 4416 2591 4416 
Q 1844 4416 1459 3886 
Q 1075 3356 1075 2328 
Q 1075 1303 1459 773 
Q 1844 244 2591 244 
Q 3113 244 3450 492 
Q 3788 741 3938 1234 
L 4513 1234 
z
" transform="scale(0.015625)"/>
       <path id="DejaVuSerif-4e" d="M 313 0 
L 313 331 
L 941 331 
L 941 4331 
L 313 4331 
L 313 4666 
L 1509 4666 
L 4306 984 
L 4306 4331 
L 3681 4331 
L 3681 4666 
L 5319 4666 
L 5319 4331 
L 4691 4331 
L 4691 -91 
L 4313 -91 
L 1325 3841 
L 1325 331 
L 1953 331 
L 1953 0 
L 313 0 
z
" transform="scale(0.015625)"/>
       <path id="DejaVuSerif-6d" d="M 3316 2675 
Q 3481 3041 3739 3227 
Q 3997 3413 4341 3413 
Q 4863 3413 5119 3089 
Q 5375 2766 5375 2113 
L 5375 331 
L 5894 331 
L 5894 0 
L 4300 0 
L 4300 331 
L 4800 331 
L 4800 2047 
Q 4800 2556 4650 2772 
Q 4500 2988 4153 2988 
Q 3769 2988 3567 2697 
Q 3366 2406 3366 1850 
L 3366 331 
L 3866 331 
L 3866 0 
L 2291 0 
L 2291 331 
L 2791 331 
L 2791 2069 
Q 2791 2566 2641 2777 
Q 2491 2988 2144 2988 
Q 1759 2988 1557 2697 
Q 1356 2406 1356 1850 
L 1356 331 
L 1856 331 
L 1856 0 
L 263 0 
L 263 331 
L 781 331 
L 781 2994 
L 231 2994 
L 231 3322 
L 1356 3322 
L 1356 2731 
Q 1516 3063 1762 3238 
Q 2009 3413 2322 3413 
Q 2709 3413 2968 3220 
Q 3228 3028 3316 2675 
z
" transform="scale(0.015625)"/>
       <path id="DejaVuSerif-6f" d="M 1925 219 
Q 2388 219 2623 584 
Q 2859 950 2859 1663 
Q 2859 2375 2623 2739 
Q 2388 3103 1925 3103 
Q 1463 3103 1227 2739 
Q 991 2375 991 1663 
Q 991 950 1228 584 
Q 1466 219 1925 219 
z
M 1925 -91 
Q 1200 -91 759 389 
Q 319 869 319 1663 
Q 319 2456 758 2934 
Q 1197 3413 1925 3413 
Q 2653 3413 3092 2934 
Q 3531 2456 3531 1663 
Q 3531 869 3092 389 
Q 2653 -91 1925 -91 
z
" transform="scale(0.015625)"/>
       <path id="DejaVuSerif-64" d="M 3359 331 
L 3909 331 
L 3909 0 
L 2784 0 
L 2784 519 
Q 2616 206 2355 57 
Q 2094 -91 1709 -91 
Q 1097 -91 708 395 
Q 319 881 319 1663 
Q 319 2444 706 2928 
Q 1094 3413 1709 3413 
Q 2094 3413 2355 3264 
Q 2616 3116 2784 2803 
L 2784 4531 
L 2241 4531 
L 2241 4863 
L 3359 4863 
L 3359 331 
z
M 2784 1497 
L 2784 1825 
Q 2784 2422 2554 2737 
Q 2325 3053 1888 3053 
Q 1444 3053 1217 2703 
Q 991 2353 991 1663 
Q 991 975 1217 622 
Q 1444 269 1888 269 
Q 2325 269 2554 583 
Q 2784 897 2784 1497 
z
" transform="scale(0.015625)"/>
       <path id="DejaVuSerif-6c" d="M 1313 331 
L 1856 331 
L 1856 0 
L 184 0 
L 184 331 
L 738 331 
L 738 4531 
L 184 4531 
L 184 4863 
L 1313 4863 
L 1313 331 
z
" transform="scale(0.015625)"/>
      </defs>
      <use xlink:href="#DejaVuSerif-47"/>
      <use xlink:href="#DejaVuSerif-43" x="79.882812"/>
      <use xlink:href="#DejaVuSerif-4e" x="156.396484"/>
      <use xlink:href="#DejaVuSerif-20" x="243.896484"/>
      <use xlink:href="#DejaVuSerif-6d" x="275.683594"/>
      <use xlink:href="#DejaVuSerif-6f" x="370.507812"/>
      <use xlink:href="#DejaVuSerif-64" x="430.712891"/>
      <use xlink:href="#DejaVuSerif-65" x="494.726562"/>
      <use xlink:href="#DejaVuSerif-6c" x="553.90625"/>
     </g>
    </g>
    <g id="line2d_131">
     <path d="M 32.003125 46.196875 
L 42.003125 46.196875 
L 52.003125 46.196875 
" style="fill: none; stroke-dasharray: 6.4,1.6,1,1.6; stroke-dashoffset: 0; stroke: #000000"/>
    </g>
    <g id="text_16">
     <!-- BC method -->
     <g transform="translate(60.003125 49.696875)scale(0.1 -0.1)">
      <defs>
       <path id="DejaVuSerif-42" d="M 1581 331 
L 2516 331 
Q 3078 331 3337 575 
Q 3597 819 3597 1350 
Q 3597 1878 3339 2120 
Q 3081 2363 2516 2363 
L 1581 2363 
L 1581 331 
z
M 1581 2694 
L 2375 2694 
Q 2888 2694 3123 2891 
Q 3359 3088 3359 3513 
Q 3359 3941 3123 4136 
Q 2888 4331 2375 4331 
L 1581 4331 
L 1581 2694 
z
M 353 0 
L 353 331 
L 947 331 
L 947 4331 
L 353 4331 
L 353 4666 
L 2656 4666 
Q 3363 4666 3720 4377 
Q 4078 4088 4078 3513 
Q 4078 3097 3829 2850 
Q 3581 2603 3103 2547 
Q 3697 2472 4005 2167 
Q 4313 1863 4313 1350 
Q 4313 656 3875 328 
Q 3438 0 2509 0 
L 353 0 
z
" transform="scale(0.015625)"/>
       <path id="DejaVuSerif-68" d="M 263 0 
L 263 331 
L 781 331 
L 781 4531 
L 231 4531 
L 231 4863 
L 1356 4863 
L 1356 2731 
Q 1516 3069 1770 3241 
Q 2025 3413 2363 3413 
Q 2913 3413 3172 3097 
Q 3431 2781 3431 2113 
L 3431 331 
L 3944 331 
L 3944 0 
L 2356 0 
L 2356 331 
L 2853 331 
L 2853 1931 
Q 2853 2541 2704 2764 
Q 2556 2988 2175 2988 
Q 1775 2988 1565 2697 
Q 1356 2406 1356 1850 
L 1356 331 
L 1856 331 
L 1856 0 
L 263 0 
z
" transform="scale(0.015625)"/>
      </defs>
      <use xlink:href="#DejaVuSerif-42"/>
      <use xlink:href="#DejaVuSerif-43" x="75.361328"/>
      <use xlink:href="#DejaVuSerif-20" x="151.875"/>
      <use xlink:href="#DejaVuSerif-6d" x="183.662109"/>
      <use xlink:href="#DejaVuSerif-65" x="278.486328"/>
      <use xlink:href="#DejaVuSerif-74" x="337.666016"/>
      <use xlink:href="#DejaVuSerif-68" x="377.851562"/>
      <use xlink:href="#DejaVuSerif-6f" x="442.255859"/>
      <use xlink:href="#DejaVuSerif-64" x="502.460938"/>
     </g>
    </g>
   </g>
  </g>
 </g>
 <defs>
  <clipPath id="pf7c7119a40">
   <rect x="23.003125" y="3.6" width="334.8" height="221.76"/>
  </clipPath>
 </defs>
</svg>
